<svg xmlns="http://www.w3.org/2000/svg" viewBox="0 0 1000 132.57"><defs><style>.cls-1{fill:#fff;}.cls-2{fill:#666;}.cls-3{fill:#840246;}.cls-4{fill:none;}</style></defs><title>logo_fmAtivo 1@2x</title><g id="Camada_2" data-name="Camada 2"><g id="Camada_1-2" data-name="Camada 1"><path class="cls-1" d="M164.81,86.13a2.51,2.51,0,0,1-1.54-.48,1.45,1.45,0,0,1-.65-1.19V46.68a1.4,1.4,0,0,1,.65-1.13,2.5,2.5,0,0,1,1.54-.48h18.87a27.2,27.2,0,0,1,13,2.9,20.07,20.07,0,0,1,8.13,7.62,19.77,19.77,0,0,1,0,20,20.05,20.05,0,0,1-8.13,7.62,27.2,27.2,0,0,1-13,2.91Zm18.87-2a23.78,23.78,0,0,0,11.54-2.62,18,18,0,0,0,0-31.89A23.78,23.78,0,0,0,183.68,47H165.3V84.12Z"/><path class="cls-1" d="M219.34,85a.93.93,0,0,1-.43.81,1.8,1.8,0,0,1-1,.29,1.66,1.66,0,0,1-.94-.29.86.86,0,0,1-.43-.74V46.16a.92.92,0,0,1,.43-.81,1.8,1.8,0,0,1,1-.29h21.62a35,35,0,0,1,12,1.8A16.83,16.83,0,0,1,259,51.71a10.42,10.42,0,0,1,2.49,6.78,10.24,10.24,0,0,1-4.76,8.72q-4.76,3.36-13.94,3.87l17.16,13.17a1.07,1.07,0,0,1,.52.84.89.89,0,0,1-.39.74,1.46,1.46,0,0,1-.9.29,1.71,1.71,0,0,1-1-.39l-12.9-10.15A23.2,23.2,0,0,0,231,71h-8.57c-1.71,0-3.1,1-3.1,2.32Zm20.34-15.88q9.35,0,14.11-2.91t4.76-7.49a8.93,8.93,0,0,0-2.27-5.91,15.1,15.1,0,0,0-6.52-4.23,29.48,29.48,0,0,0-10.08-1.55H219.34V69.15Z"/><path class="cls-1" d="M312.91,46.14a.94.94,0,0,1,.39-.8,1.54,1.54,0,0,1,.94-.28,1.41,1.41,0,0,1,.86.28.87.87,0,0,1,.39.73v21.8a15.87,15.87,0,0,1-3.15,9.92A19.48,19.48,0,0,1,304,84a29.82,29.82,0,0,1-22,0,19.77,19.77,0,0,1-8.34-6.23,15.72,15.72,0,0,1-3.19-9.92V46.08a.87.87,0,0,1,.39-.73,1.44,1.44,0,0,1,1.72,0,.94.94,0,0,1,.39.8V67.88a13.87,13.87,0,0,0,2.81,8.77,17.23,17.23,0,0,0,7.4,5.47,26.61,26.61,0,0,0,19.48,0,17.25,17.25,0,0,0,7.41-5.47,13.9,13.9,0,0,0,2.8-8.77Z"/><path class="cls-1" d="M368.27,45.06a1.23,1.23,0,0,1,.84.29,1.11,1.11,0,0,1,.32.87V85a1.07,1.07,0,0,1-.36.84,1.25,1.25,0,0,1-.87.32,1.36,1.36,0,0,1-.87-.29A1,1,0,0,1,367,85V49.71L348.22,83.93a1.37,1.37,0,0,1-1.23.71,1.43,1.43,0,0,1-1.31-.71L326.94,49.84V85a1.06,1.06,0,0,1-.36.87,1.37,1.37,0,0,1-.87.29,1.27,1.27,0,0,1-.87-.32,1.08,1.08,0,0,1-.36-.84V46.22a1.05,1.05,0,0,1,.36-.87,1.26,1.26,0,0,1,.8-.29,1.34,1.34,0,0,1,1.16.64l20.2,36,20-36A1.52,1.52,0,0,1,368.27,45.06Z"/><path class="cls-1" d="M389.6,83.34a21.35,21.35,0,0,1-8.27-7.67,19.05,19.05,0,0,1-2.9-10.77A19.17,19.17,0,0,1,382,53.76a20,20,0,0,1,8.31-6.57,25.79,25.79,0,0,1,10.22-2.13,26.61,26.61,0,0,1,10.57,2.25,21.47,21.47,0,0,1,8.8,6.92,18.27,18.27,0,0,1,3.53,11.36A18.67,18.67,0,0,1,420.31,76a21.6,21.6,0,0,1-8.24,7.38,24.43,24.43,0,0,1-22.48-.09Zm-6-8.39A19.62,19.62,0,0,0,391,81.71a21.33,21.33,0,0,0,19.93,0A19.6,19.6,0,0,0,418.3,75a17.07,17.07,0,0,0,2.76-9.42,16.54,16.54,0,0,0-3.18-10.36,19,19,0,0,0-8-6.14,24.56,24.56,0,0,0-9.44-2,23,23,0,0,0-9.37,2,17.38,17.38,0,0,0-7.39,6.14,17.68,17.68,0,0,0-2.9,10.36A17.06,17.06,0,0,0,383.59,75Z"/><path class="cls-1" d="M474.69,45.38a2,2,0,0,1,2.14,0,1.07,1.07,0,0,1,.45.91V84.83a1.09,1.09,0,0,1-.4.9,1.44,1.44,0,0,1-.94.32,2.65,2.65,0,0,1-1.79-.71L435.27,49V85a1,1,0,0,1-.4.84,1.59,1.59,0,0,1-1,.32,1.92,1.92,0,0,1-1.07-.29,1,1,0,0,1-.45-.87V46.42a1.27,1.27,0,0,1,.4-1,1.51,1.51,0,0,1,1-.35,2.32,2.32,0,0,1,1.7.71l38.8,36.35V46.29A1.05,1.05,0,0,1,474.69,45.38Z"/><path class="cls-1" d="M488.46,86.13a2.51,2.51,0,0,1-1.54-.48,1.45,1.45,0,0,1-.65-1.19V46.68a1.4,1.4,0,0,1,.65-1.13,2.5,2.5,0,0,1,1.54-.48h18.87a27.2,27.2,0,0,1,13,2.9,20.07,20.07,0,0,1,8.13,7.62,19.77,19.77,0,0,1,0,20,20,20,0,0,1-8.13,7.62,27.2,27.2,0,0,1-13,2.91Zm18.87-2a23.78,23.78,0,0,0,11.54-2.62,18,18,0,0,0,0-31.89A23.78,23.78,0,0,0,507.33,47H489V84.12Z"/><path class="cls-1" d="M558.48,76.23a1.44,1.44,0,0,1,1-.37,1.54,1.54,0,0,1,.74.19.8.8,0,0,1,.43.56,8.53,8.53,0,0,0,4.85,4.79,29.34,29.34,0,0,0,8,2.35,51.5,51.5,0,0,0,7.43.63,43.65,43.65,0,0,0,9-.94,20.45,20.45,0,0,0,7.63-3.13,6.79,6.79,0,0,0,3.13-5.82A5.46,5.46,0,0,0,598,69.6a16.11,16.11,0,0,0-6.45-2.25q-3.84-.56-10.32-1-7.19-.44-11.53-1.16a17.48,17.48,0,0,1-7.35-2.85,7.11,7.11,0,0,1-3-6.2,7.61,7.61,0,0,1,3.52-6.45,22.61,22.61,0,0,1,8.32-3.57A41.45,41.45,0,0,1,580,45.06a47.41,47.41,0,0,1,13.18,1.75q6.06,1.75,8.09,6.14a1.73,1.73,0,0,1,.15.57.69.69,0,0,1-.31.59,1.32,1.32,0,0,1-.78.22,1.23,1.23,0,0,1-1.25-.69q-3-6.69-19-6.7a34.15,34.15,0,0,0-8.6,1.1,18.57,18.57,0,0,0-6.92,3.22,6.19,6.19,0,0,0-2.7,4.94,5.52,5.52,0,0,0,2.62,4.94A16.41,16.41,0,0,0,571,63.43q3.87.6,10.51,1,7.19.5,11.46,1.22a17.93,17.93,0,0,1,7.23,2.75,6.79,6.79,0,0,1,3,6,8.27,8.27,0,0,1-3.4,6.91A21,21,0,0,1,591.32,85a49.11,49.11,0,0,1-10.44,1.1,47.77,47.77,0,0,1-14.23-2.07Q560,82,558.29,77.11A.68.68,0,0,1,558.48,76.23Z"/><path class="cls-1" d="M634.64,48.11l-20.4,37.46a1,1,0,0,1-.94.56,1.21,1.21,0,0,1-.8-.28.88.88,0,0,1-.34-.72,1,1,0,0,1,.14-.56l21.34-39a1.1,1.1,0,0,1,1-.56,1,1,0,0,1,.94.56l21.41,39a1,1,0,0,1,.13.56.9.9,0,0,1-.34.72,1.21,1.21,0,0,1-.8.28,1.06,1.06,0,0,1-.94-.56m-20.4-37.46Z"/><path class="cls-1" d="M648.13,46.15a.94.94,0,0,1,.42-.77,1.48,1.48,0,0,1,.91-.32,1.31,1.31,0,0,1,1.19.76l20.2,36.6,19.86-36.6a1,1,0,0,1,.49-.57,1.57,1.57,0,0,1,.77-.19,1.25,1.25,0,0,1,.81.25.86.86,0,0,1,.32.7,1,1,0,0,1-.14.58L671.83,85.49a1.08,1.08,0,0,1-1,.64,1.25,1.25,0,0,1-1-.57l-21.54-39A1,1,0,0,1,648.13,46.15Z"/><path class="cls-1" d="M702.62,45.38a1.3,1.3,0,0,0-1.7,0,1.14,1.14,0,0,0-.37.91V85a1,1,0,0,0,.37.81,1.39,1.39,0,0,0,1.7,0A1,1,0,0,0,703,85V46.29A1.14,1.14,0,0,0,702.62,45.38Z"/><path class="cls-1" d="M782.1,46.15a.94.94,0,0,1,.42-.77,1.48,1.48,0,0,1,.91-.32,1.31,1.31,0,0,1,1.19.76l20.2,36.6,19.86-36.6a1,1,0,0,1,.49-.57,1.57,1.57,0,0,1,.77-.19,1.25,1.25,0,0,1,.81.25.86.86,0,0,1,.32.7,1,1,0,0,1-.14.58L805.8,85.49a1.08,1.08,0,0,1-1,.64,1.25,1.25,0,0,1-1-.57l-21.54-39A1,1,0,0,1,782.1,46.15Z"/><path class="cls-1" d="M836.59,45.38a1.3,1.3,0,0,0-1.7,0,1.14,1.14,0,0,0-.37.91V85a1,1,0,0,0,.37.81,1.39,1.39,0,0,0,1.7,0A1,1,0,0,0,837,85V46.29A1.14,1.14,0,0,0,836.59,45.38Z"/><path class="cls-1" d="M722.35,83.34a21.41,21.41,0,0,1-8.27-7.67,19.09,19.09,0,0,1-2.89-10.77,19.14,19.14,0,0,1,3.53-11.14A20,20,0,0,1,723,47.19a25.79,25.79,0,0,1,10.22-2.13,26.62,26.62,0,0,1,10.57,2.25,21.5,21.5,0,0,1,8.8,6.92,18.27,18.27,0,0,1,3.53,11.36A18.67,18.67,0,0,1,753.07,76a21.56,21.56,0,0,1-8.23,7.38,24.43,24.43,0,0,1-22.48-.09Zm-6-8.39a19.59,19.59,0,0,0,7.39,6.76,21.33,21.33,0,0,0,19.93,0A19.62,19.62,0,0,0,751.05,75a17.07,17.07,0,0,0,2.76-9.42,16.54,16.54,0,0,0-3.18-10.36,19,19,0,0,0-8-6.14,24.58,24.58,0,0,0-9.44-2,23,23,0,0,0-9.37,2,17.35,17.35,0,0,0-7.39,6.14,17.68,17.68,0,0,0-2.9,10.36A17.07,17.07,0,0,0,716.35,75Z"/><path class="cls-1" d="M848,85.57a1,1,0,0,1-.94.56,1.21,1.21,0,0,1-.8-.28.88.88,0,0,1-.34-.72,1,1,0,0,1,.13-.56l21.34-39a1.1,1.1,0,0,1,1-.56,1,1,0,0,1,.94.56l21.41,39a1,1,0,0,1,.14.56.9.9,0,0,1-.34.72,1.22,1.22,0,0,1-.81.28,1,1,0,0,1-.94-.56l-20.4-37.46m0,0Z"/><path class="cls-1" d="M942.27,45.38a2,2,0,0,1,2.14,0,1.06,1.06,0,0,1,.45.91V84.83a1.08,1.08,0,0,1-.4.9,1.44,1.44,0,0,1-.94.32,2.63,2.63,0,0,1-1.78-.71L902.85,49V85a1,1,0,0,1-.4.84,1.58,1.58,0,0,1-1,.32,1.92,1.92,0,0,1-1.07-.29,1,1,0,0,1-.45-.87V46.42a1.27,1.27,0,0,1,.4-1,1.49,1.49,0,0,1,1-.35,2.32,2.32,0,0,1,1.7.71l38.8,36.35V46.29A1.05,1.05,0,0,1,942.27,45.38Z"/><path class="cls-1" d="M955.94,85.57a1,1,0,0,1-.94.56,1.21,1.21,0,0,1-.8-.28.88.88,0,0,1-.34-.72,1,1,0,0,1,.13-.56l21.34-39a1.1,1.1,0,0,1,1-.56,1,1,0,0,1,.94.56l21.41,39a1,1,0,0,1,.14.56.9.9,0,0,1-.34.72,1.22,1.22,0,0,1-.81.28,1,1,0,0,1-.94-.56l-20.4-37.46m0,0Z"/><g id="Boomerang"><path class="cls-1" d="M25.41,51.66c-.33,0-.85-.06-1.52-.07"/><path class="cls-2" d="M114.63,99.2"/><path class="cls-2" d="M120.62,44"/><path class="cls-2" d="M102.75,59.55h0c0,.13-.25,1-.42,1.81-1.9,9.14,1.14,19,1.14,19A53.42,53.42,0,0,0,113,97.13c.49.59.21.25,1.76,2.13,4.9,6,7.15,9.24,8.64,11.84a21.69,21.69,0,0,1,1.41,2.67h0a13.61,13.61,0,0,1,1.05,3.36,13.16,13.16,0,0,1-1,6.62s4.58,2.15,6.2,2.23a10.71,10.71,0,0,0,6.45-1.53,9.33,9.33,0,0,0,3.64-3.74,6.24,6.24,0,0,0,.37-3.62c-.78-4.84-6.77-9.51-12.33-15.23a74.78,74.78,0,0,1-8.35-10c-2.12-3.1-5.12-7.47-6.68-13a33,33,0,0,1,.2-17.28c1.08-4.51,3.81-12.78,27.09-40.87,0,0,.87-1.13,2.3-2.85.76-.91,1.11-1.39,1.33-1.7A12.68,12.68,0,0,0,147,12.27,10.44,10.44,0,0,0,147.25,8c-.16-1-.89-5.9-5-7.45A8.46,8.46,0,0,0,134,1.95l-.07.05,0,0a14.7,14.7,0,0,0-1.57,1.33,14.26,14.26,0,0,0-1.28,1.43c.78,1.94.59,6.29.41,7.7v.06A16.37,16.37,0,0,1,130,17.23c-1,2.24-2.16,3.87-4.52,7.12l0,0-.35.46,0,0-.38.49-.35.46-.34.45c-.82,1.1-4.47,5.92-4.47,5.92-1.15,1.52-3.53,4.65-6.25,8.36-1,1.4-2.59,3.45-4.52,6.32l-.35.52A51.21,51.21,0,0,0,102.75,59.55Z"/><path class="cls-3" d="M55.5,64.65c1.78.17,2.68.36,2.68.36l1.59.35"/><path class="cls-1" d="M100.23,95.72c-1.38-2.18-2.6-4.39-2.6-4.39-.37-.67-.77-1.41-1.19-2.24A55.36,55.36,0,0,1,91,74.8a37.94,37.94,0,0,1-.94-7,36.77,36.77,0,0,1,1.65-12.17A42.86,42.86,0,0,1,94,50.18a48.66,48.66,0,0,1,5.37-8.76l.76-1,.54-.69c5-6.35,12.25-14.17,13.39-15.66.13-.17.82-1.1,1-1.38,0,0,.19-.23.37-.5l0,0a38,38,0,0,0,4.42-7.06,17,17,0,0,0,1.43-4.67V10.4a9.58,9.58,0,0,0-.6-6,7.77,7.77,0,0,0-1.31-1.84c-.11-.12-.22-.2-.33-.31A8.13,8.13,0,0,0,118,1.41,7,7,0,0,0,114.74.14c-2.62-.23-4.75,1.34-5.89,2.18a18.3,18.3,0,0,0-5.53,7.5c-.47,1-.71,1.64-1,2.55L102,13a68.71,68.71,0,0,1-3.86,9.07c-.75,1.26-1.39,2.31-2.11,3.4a74.59,74.59,0,0,1-4.78,6.35c-1.52,1.83-4.93,5.9-7.22,8.22a53.34,53.34,0,0,1-15.6,10.39c-12.87,5.54-25.33,3.95-30.61,3-2.5-.39-4.52-.7-5.92-.9,0,0-2.31-.34-8-1.13l-.65-.09s-2-.24-4-.28a24.74,24.74,0,0,0-9.79,1.28,16.52,16.52,0,0,0-5.21,3.07c-3.31,3-4.93,7.49-4,9.81A5.8,5.8,0,0,0,2.75,68l.12.07c1.5.87,3.06,1,6.12.79l.3,0c3.67-.22,6.45-.62,7-.7.73-.11,1.35-.21,1.95-.32l1.46-.28,1.12-.22,1.31-.23L23,67l.18,0c2-.33,3.6-.6,5-.84l2-.35,1.33-.2c.69-.1,1.74-.24,3-.39a97,97,0,0,1,21-.55l4.26.74a29.59,29.59,0,0,1,12,5.57c3.93,3.18,6,8.26,10.14,18.44a40.82,40.82,0,0,1,1.9,5c3.91,12.88-1.35,19.09,3.77,25.47a16.11,16.11,0,0,0,9.76,5.4c6,.85,13.55-1.79,15.28-6.17C115,113,105.71,104.38,100.23,95.72ZM77.74,62.24a2.84,2.84,0,1,1,3-2.82A2.91,2.91,0,0,1,77.74,62.24Z"/><ellipse class="cls-4" cx="77.74" cy="59.31" rx="3" ry="2.83"/></g><path class="cls-1" d="M742.17,101.86a8.77,8.77,0,0,1,3.7,4.22v-4.46c0-.53.29-.8.87-.8a1,1,0,0,1,.66.22.73.73,0,0,1,.26.58v21.1a.74.74,0,0,1-.26.58,1,1,0,0,1-.66.22c-.58,0-.87-.27-.87-.8v-4.28a8.21,8.21,0,0,1-3.8,4.13,13,13,0,0,1-6.19,1.41,14.65,14.65,0,0,1-6.39-1.41,11.41,11.41,0,0,1-4.71-4.11,11.28,11.28,0,0,1-1.78-6.36,11,11,0,0,1,1.83-6.33,11.37,11.37,0,0,1,4.84-4,15.37,15.37,0,0,1,6.42-1.36A11.77,11.77,0,0,1,742.17,101.86Zm3.7,8.45a7.75,7.75,0,0,0-1.32-4.5,8.23,8.23,0,0,0-3.55-2.9,11.84,11.84,0,0,0-4.82-1,13,13,0,0,0-6.14,1.36,9.55,9.55,0,0,0-3.93,3.68,10.22,10.22,0,0,0,3.93,14.1,11.08,11.08,0,0,0,5.43,1.34,13.78,13.78,0,0,0,5.07-.94,9.08,9.08,0,0,0,3.85-2.79,7,7,0,0,0,1.47-4.48Z"/><path class="cls-1" d="M768.45,100.36a12.19,12.19,0,0,1,6,1.47,8.4,8.4,0,0,1,3.75,4.06V95.14c0-.53.29-.8.86-.8a1,1,0,0,1,.66.23.74.74,0,0,1,.26.58v27.8a.74.74,0,0,1-.26.58,1,1,0,0,1-.66.22c-.57,0-.86-.27-.86-.8v-4.42a8.68,8.68,0,0,1-3.7,3.93,13.3,13.3,0,0,1-6.29,1.52,13.71,13.71,0,0,1-4.82-.85,12.15,12.15,0,0,1-6-4.33,11.87,11.87,0,0,1,0-13.34,11.11,11.11,0,0,1,5.66-4.24A15.52,15.52,0,0,1,768.45,100.36Zm8.42,18.11a7.06,7.06,0,0,0,1.37-4.28v-3.89a7.61,7.61,0,0,0-1.37-4.57,8.43,8.43,0,0,0-3.65-2.86,12.67,12.67,0,0,0-5-1,12.15,12.15,0,0,0-6,1.38,9.61,9.61,0,0,0-3.83,3.7,10.11,10.11,0,0,0-1.32,5.08,9.69,9.69,0,0,0,1.4,5.18,10.12,10.12,0,0,0,3.83,3.62,12.83,12.83,0,0,0,5.48,1.52,13.5,13.5,0,0,0,5.12-1A9.05,9.05,0,0,0,776.87,118.47Z"/><path class="cls-1" d="M786.1,101.56a.66.66,0,0,1,.3-.53,1.12,1.12,0,0,1,.66-.22.94.94,0,0,1,.86.53l11.36,19.76,11.31-19.76a.88.88,0,0,1,.86-.53.79.79,0,0,1,.51.15.56.56,0,0,1,.2.47.88.88,0,0,1-.1.45l-12,21.37a.78.78,0,0,1-.71.45.92.92,0,0,1-.76-.4L786.2,101.88A.64.64,0,0,1,786.1,101.56Z"/><path class="cls-1" d="M823.73,122.94a12.79,12.79,0,0,1-4.46-2.94,11.14,11.14,0,0,1-3-7.81,11.37,11.37,0,0,1,1.12-4.91,11.68,11.68,0,0,1,3.22-4.08,12.52,12.52,0,0,1,4.95-2.43,16.91,16.91,0,0,1,3.85-.4,18.49,18.49,0,0,1,3.81.4,12.09,12.09,0,0,1,9.33,10.57,11.18,11.18,0,0,1-3,8.66,12.76,12.76,0,0,1-4.47,2.94,16,16,0,0,1-11.26,0Zm5.58-21a14.77,14.77,0,0,0-3.2.36,10.36,10.36,0,0,0-8.06,10.08,9.85,9.85,0,0,0,.66,3.55,9.35,9.35,0,0,0,2,3.1,10.59,10.59,0,0,0,3.86,2.54,13.07,13.07,0,0,0,4.82.89,13.4,13.4,0,0,0,4.9-.89,10.49,10.49,0,0,0,3.88-2.54,9.32,9.32,0,0,0,2-3.08,9.57,9.57,0,0,0,.66-3.52,10.44,10.44,0,0,0-8.17-10.13A15.28,15.28,0,0,0,829.32,101.92Z"/><path class="cls-1" d="M871.67,128.14a9.91,9.91,0,0,1-4.44,3.32,17,17,0,0,1-6.31,1.11,19.25,19.25,0,0,1-5.35-.67,12,12,0,0,1-4.29-2.27.87.87,0,0,1-.36-.63.56.56,0,0,1,.26-.49,1,1,0,0,1,.61-.18,1.11,1.11,0,0,1,.66.18,14.78,14.78,0,0,0,4,2,16.24,16.24,0,0,0,4.44.53,14.81,14.81,0,0,0,5.3-.92,8.58,8.58,0,0,0,3.85-2.79,7.21,7.21,0,0,0,1.45-4.55v-4.15a8.47,8.47,0,0,1-3.88,3.93,12.6,12.6,0,0,1-5.91,1.38,15.58,15.58,0,0,1-6.44-1.34,11.48,11.48,0,0,1-4.82-3.95,10.6,10.6,0,0,1-1.82-6.22,11.63,11.63,0,0,1,2.08-6.85,12.15,12.15,0,0,1,6-4.4,13.81,13.81,0,0,1,4.82-.84,13.44,13.44,0,0,1,6.29,1.56,8.4,8.4,0,0,1,3.7,4v-4.42c0-.53.29-.8.86-.8a1,1,0,0,1,.66.23.74.74,0,0,1,.26.58v21.33A8.78,8.78,0,0,1,871.67,128.14Zm-10.55-26.21a12.26,12.26,0,0,0-6.24,2,9.9,9.9,0,0,0-3.37,3.75,10.31,10.31,0,0,0-1.09,4.69,9.94,9.94,0,0,0,1.32,5.08,9.35,9.35,0,0,0,3.88,3.62,13,13,0,0,0,6.11,1.34,11,11,0,0,0,5-1.12,8.94,8.94,0,0,0,3.5-3,7.18,7.18,0,0,0,1.27-4.1v-3.89a7.35,7.35,0,0,0-1.37-4.37,8.92,8.92,0,0,0-3.91-3A12.51,12.51,0,0,0,861.12,101.92Z"/><path class="cls-1" d="M900,101.86a8.77,8.77,0,0,1,3.7,4.22v-4.46c0-.53.29-.8.87-.8a1,1,0,0,1,.66.22.73.73,0,0,1,.26.58v21.1a.74.74,0,0,1-.26.58,1,1,0,0,1-.66.22c-.58,0-.87-.27-.87-.8v-4.28a8.21,8.21,0,0,1-3.8,4.13,13,13,0,0,1-6.19,1.41,14.65,14.65,0,0,1-6.39-1.41,11.41,11.41,0,0,1-4.71-4.11,11.28,11.28,0,0,1-1.78-6.36,11,11,0,0,1,1.83-6.33,11.37,11.37,0,0,1,4.84-4,15.37,15.37,0,0,1,6.42-1.36A11.77,11.77,0,0,1,900,101.86Zm3.7,8.45a7.75,7.75,0,0,0-1.32-4.5,8.23,8.23,0,0,0-3.55-2.9,11.84,11.84,0,0,0-4.82-1,13,13,0,0,0-6.14,1.36A9.55,9.55,0,0,0,884,107a10.22,10.22,0,0,0,3.93,14.1,11.08,11.08,0,0,0,5.43,1.34,13.78,13.78,0,0,0,5.07-.94,9.08,9.08,0,0,0,3.85-2.79,7,7,0,0,0,1.47-4.48Z"/><path class="cls-1" d="M926.3,100.36a12.19,12.19,0,0,1,6,1.47,8.4,8.4,0,0,1,3.75,4.06V95.14c0-.53.29-.8.86-.8a1,1,0,0,1,.66.23.74.74,0,0,1,.26.58v27.8a.74.74,0,0,1-.26.58,1,1,0,0,1-.66.22c-.57,0-.86-.27-.86-.8v-4.42a8.68,8.68,0,0,1-3.7,3.93A13.3,13.3,0,0,1,926.1,124a13.71,13.71,0,0,1-4.82-.85,12.15,12.15,0,0,1-6-4.33,11.87,11.87,0,0,1,0-13.34,11.11,11.11,0,0,1,5.66-4.24A15.52,15.52,0,0,1,926.3,100.36Zm8.42,18.11a7.06,7.06,0,0,0,1.37-4.28v-3.89a7.61,7.61,0,0,0-1.37-4.57,8.43,8.43,0,0,0-3.65-2.86,12.67,12.67,0,0,0-5-1,12.15,12.15,0,0,0-6,1.38,9.61,9.61,0,0,0-3.83,3.7,10.11,10.11,0,0,0-1.32,5.08,9.69,9.69,0,0,0,1.4,5.18,10.12,10.12,0,0,0,3.83,3.62,12.83,12.83,0,0,0,5.48,1.52,13.5,13.5,0,0,0,5.12-1A9.05,9.05,0,0,0,934.72,118.47Z"/><path class="cls-1" d="M952.93,122.94a12.79,12.79,0,0,1-4.46-2.94,11.14,11.14,0,0,1-3-7.81,11.37,11.37,0,0,1,1.12-4.91,11.68,11.68,0,0,1,3.22-4.08,12.52,12.52,0,0,1,4.95-2.43,16.91,16.91,0,0,1,3.85-.4,18.49,18.49,0,0,1,3.81.4,12.09,12.09,0,0,1,9.33,10.57,11.18,11.18,0,0,1-3,8.66,12.76,12.76,0,0,1-4.47,2.94,16,16,0,0,1-11.26,0Zm5.58-21a14.77,14.77,0,0,0-3.2.36,10.36,10.36,0,0,0-8.06,10.08,9.85,9.85,0,0,0,.66,3.55,9.35,9.35,0,0,0,2,3.1,10.59,10.59,0,0,0,3.86,2.54,13.07,13.07,0,0,0,4.82.89,13.4,13.4,0,0,0,4.9-.89,10.49,10.49,0,0,0,3.88-2.54,9.32,9.32,0,0,0,2-3.08,9.57,9.57,0,0,0,.66-3.52,10.44,10.44,0,0,0-8.17-10.13A15.28,15.28,0,0,0,958.51,101.92Z"/><path class="cls-1" d="M977.23,117.85a.87.87,0,0,1,1.52.49q.45,2,3.4,3.08a18.38,18.38,0,0,0,6.55,1.11,17.5,17.5,0,0,0,4.06-.53,10.71,10.71,0,0,0,3.85-1.72,3.62,3.62,0,0,0,1.62-3.05,3,3,0,0,0-1.27-2.63,7.75,7.75,0,0,0-3.17-1.22,50,50,0,0,0-5.15-.56,57.84,57.84,0,0,1-5.91-.67,8.32,8.32,0,0,1-3.76-1.63,4.31,4.31,0,0,1-1.54-3.59,4.6,4.6,0,0,1,1.65-3.5,11,11,0,0,1,4.13-2.28,16.61,16.61,0,0,1,5-.78q9,0,11,4.59a.85.85,0,0,1-.13.85.89.89,0,0,1-.68.31.94.94,0,0,1-.51-.16.82.82,0,0,1-.36-.42q-1.57-3.7-9.28-3.7a16.37,16.37,0,0,0-4.11.53,9.1,9.1,0,0,0-3.5,1.69,3.56,3.56,0,0,0-1.42,2.86,2.9,2.9,0,0,0,1.24,2.52,7.54,7.54,0,0,0,3.12,1.18q1.87.31,5.07.53,3.76.31,6,.74a8.64,8.64,0,0,1,3.83,1.67,4.4,4.4,0,0,1,1.57,3.66,4.89,4.89,0,0,1-1.85,4,11,11,0,0,1-4.44,2.14,21.44,21.44,0,0,1-5,.62,22.09,22.09,0,0,1-7.46-1.23q-3.45-1.23-4.11-4.12A.73.73,0,0,1,977.23,117.85Z"/></g></g></svg>