<?xml version="1.0" encoding="utf-8"?>
<!-- Generator: Adobe Illustrator 21.1.0, SVG Export Plug-In . SVG Version: 6.00 Build 0)  -->
<svg version="1.1" id="Camada_1" xmlns="http://www.w3.org/2000/svg" xmlns:xlink="http://www.w3.org/1999/xlink" x="0px" y="0px"
	 viewBox="0 0 1000 139.6" style="enable-background:new 0 0 1000 139.6;" xml:space="preserve">
<style type="text/css">
	.st0{fill:#666666;}
	.st1{fill:#FFFFFF;}
	.st2{fill:#840246;}
	.st3{fill:none;}
</style>
<title>Logo_cores_finalAtivo 3@2x</title>
<g id="Camada_2">
	<g id="Camada_1-2">
		<path class="st0" d="M164.8,89.6c-0.6,0-1.1-0.2-1.5-0.5c-0.4-0.3-0.6-0.7-0.6-1.2V50.2c0-0.5,0.3-0.9,0.6-1.1
			c0.4-0.3,1-0.5,1.5-0.5h18.9c4.5-0.1,9,0.9,13,2.9c3.4,1.8,6.2,4.4,8.1,7.6c3.6,6.2,3.6,13.8,0,20c-1.9,3.2-4.7,5.8-8.1,7.6
			c-4,2-8.5,3-13,2.9L164.8,89.6z M183.7,87.6c4,0.1,8-0.8,11.5-2.6c3-1.6,5.6-4,7.2-6.9c3.3-5.7,3.3-12.5,0-18.1
			c-1.7-2.9-4.2-5.3-7.2-6.9c-3.5-1.8-7.5-2.7-11.5-2.6h-18.4v37.1H183.7z"/>
		<path class="st0" d="M219.3,88.5c0,0.3-0.2,0.6-0.4,0.8c-0.3,0.2-0.6,0.3-1,0.3c-0.3,0-0.7-0.1-0.9-0.3c-0.3-0.2-0.4-0.4-0.4-0.7
			v-39c0-0.3,0.2-0.6,0.4-0.8c0.3-0.2,0.6-0.3,1-0.3h21.6c4.1-0.1,8.1,0.5,12,1.8c2.9,0.9,5.5,2.6,7.4,4.8c1.6,1.9,2.5,4.3,2.5,6.8
			c0.1,3.5-1.7,6.8-4.8,8.7c-3.2,2.2-7.8,3.5-13.9,3.9L260,87.7c0.3,0.2,0.5,0.5,0.5,0.8c0,0.3-0.1,0.6-0.4,0.7
			c-0.3,0.2-0.6,0.3-0.9,0.3c-0.4,0-0.7-0.2-1-0.4l-12.9-10.2c-4.1-3-9.1-4.6-14.3-4.6h-8.6c-1.7,0-3.1,1-3.1,2.3L219.3,88.5z
			 M239.7,72.6c6.2,0,10.9-1,14.1-2.9c3.2-1.9,4.8-4.4,4.8-7.5c0-2.2-0.8-4.3-2.3-5.9c-1.7-1.9-4-3.4-6.5-4.2
			c-3.2-1.1-6.6-1.6-10.1-1.5h-20.3v22.1L239.7,72.6z"/>
		<path class="st0" d="M312.9,49.6c0-0.3,0.1-0.6,0.4-0.8c0.3-0.2,0.6-0.3,0.9-0.3c0.3,0,0.6,0.1,0.9,0.3c0.2,0.2,0.4,0.4,0.4,0.7
			v21.8c0.1,3.5-1,7-3.2,9.9c-2.1,2.8-5,4.9-8.3,6.2c-7,2.8-15,2.8-22,0c-3.3-1.3-6.2-3.5-8.3-6.2c-2.2-2.9-3.3-6.4-3.2-9.9V49.6
			c0-0.3,0.1-0.6,0.4-0.7c0.5-0.4,1.2-0.4,1.7,0c0.3,0.2,0.4,0.5,0.4,0.8v21.7c-0.1,3.1,0.9,6.2,2.8,8.8c1.9,2.4,4.5,4.3,7.4,5.5
			c6.2,2.5,13.2,2.5,19.5,0c3-1.1,5.5-3,7.4-5.5c1.9-2.6,2.9-5.6,2.8-8.8L312.9,49.6z"/>
		<path class="st0" d="M368.3,48.6c0.6,0,1.1,0.4,1.2,1c0,0.1,0,0.1,0,0.2v38.7c0,0.3-0.1,0.6-0.4,0.8c-0.2,0.2-0.5,0.3-0.9,0.3
			c-0.3,0-0.6-0.1-0.9-0.3c-0.3-0.2-0.4-0.5-0.4-0.9V53.2l-18.7,34.2c-0.2,0.4-0.7,0.7-1.2,0.7c-0.5,0-1.1-0.3-1.3-0.7l-18.8-34.1
			v35.2c0,0.3-0.1,0.6-0.4,0.9c-0.2,0.2-0.6,0.3-0.9,0.3c-0.3,0-0.6-0.1-0.9-0.3c-0.2-0.2-0.4-0.5-0.4-0.8V49.7
			c0-0.3,0.1-0.6,0.4-0.9c0.2-0.2,0.5-0.3,0.8-0.3c0.5,0,0.9,0.2,1.2,0.6l20.2,36l20-36C367.3,48.8,367.8,48.5,368.3,48.6z"/>
		<path class="st0" d="M389.6,86.8c-3.4-1.8-6.3-4.5-8.3-7.7c-2-3.3-3-7-2.9-10.8c0-4,1.2-7.9,3.6-11.2c2.1-2.9,5-5.1,8.3-6.6
			c3.2-1.4,6.7-2.1,10.2-2.1c3.7,0,7.3,0.8,10.6,2.3c3.5,1.5,6.6,3.9,8.8,6.9c2.4,3.3,3.7,7.3,3.5,11.4c0,3.7-1,7.3-3.1,10.5
			c-2,3.1-4.9,5.6-8.2,7.4C405.1,90.6,396.6,90.5,389.6,86.8L389.6,86.8z M383.6,78.4c5.9,9.1,18.4,12,28,6.4c2.7-1.6,5-3.8,6.7-6.4
			c1.8-2.8,2.8-6.1,2.8-9.4c0.1-3.7-1-7.3-3.2-10.4c-2-2.7-4.8-4.8-8-6.1c-3-1.3-6.2-1.9-9.4-2c-3.2,0-6.4,0.7-9.4,2
			c-3,1.3-5.6,3.5-7.4,6.1c-2,3.1-3,6.7-2.9,10.4C380.8,72.4,381.7,75.6,383.6,78.4L383.6,78.4z"/>
		<path class="st0" d="M474.7,48.9c0.6-0.4,1.5-0.4,2.1,0c0.3,0.2,0.5,0.6,0.5,1v38.5c0,0.3-0.1,0.7-0.4,0.9
			c-0.3,0.2-0.6,0.3-0.9,0.3c-0.7,0-1.3-0.3-1.8-0.7l-38.9-36.4v36c0,0.3-0.1,0.6-0.4,0.8c-0.3,0.2-0.6,0.3-1,0.3
			c-0.4,0-0.8-0.1-1.1-0.3c-0.3-0.2-0.5-0.5-0.5-0.9V49.9c0-0.4,0.1-0.7,0.4-1c0.3-0.2,0.6-0.4,1-0.4c0.6,0,1.3,0.3,1.7,0.7
			l38.8,36.4V49.8C474.2,49.4,474.4,49.1,474.7,48.9z"/>
		<path class="st0" d="M488.5,89.6c-0.6,0-1.1-0.2-1.5-0.5c-0.4-0.3-0.6-0.7-0.6-1.2V50.2c0-0.5,0.3-0.9,0.6-1.1
			c0.4-0.3,1-0.5,1.5-0.5h18.9c4.5-0.1,9,0.9,13,2.9c3.4,1.8,6.2,4.4,8.1,7.6c3.6,6.2,3.6,13.8,0,20c-1.9,3.2-4.7,5.8-8.1,7.6
			c-4,2-8.5,3-13,2.9L488.5,89.6z M507.3,87.6c4,0.1,8-0.8,11.5-2.6c3-1.6,5.6-4,7.2-6.9c3.3-5.7,3.3-12.5,0-18.1
			c-1.7-2.9-4.2-5.3-7.2-6.9c-3.5-1.8-7.5-2.7-11.5-2.6H489v37.1H507.3z"/>
		<path class="st0" d="M558.5,79.7c0.3-0.2,0.6-0.4,1-0.4c0.3,0,0.5,0.1,0.7,0.2c0.2,0.1,0.4,0.3,0.4,0.6c0.9,2.2,2.6,3.9,4.8,4.8
			c2.5,1.2,5.2,1.9,8,2.3c2.5,0.4,4.9,0.6,7.4,0.6c3,0,6-0.3,9-1c2.7-0.5,5.3-1.6,7.6-3.1c2-1.3,3.2-3.5,3.1-5.8
			c0.1-2-1-3.8-2.7-4.8c-1.9-1.2-4.2-2-6.5-2.3c-2.6-0.4-6-0.7-10.3-1c-3.9-0.2-7.7-0.6-11.5-1.2c-2.7-0.4-5.2-1.4-7.4-2.9
			c-2-1.5-3.2-3.8-3-6.2c0-2.6,1.3-5,3.5-6.5c2.5-1.7,5.3-2.9,8.3-3.6c2.9-0.7,5.8-1,8.8-1.1c4.5,0,8.9,0.6,13.2,1.7
			c4,1.2,6.7,3.2,8.1,6.1c0.1,0.2,0.1,0.4,0.2,0.6c0,0.2-0.1,0.5-0.3,0.6c-0.2,0.2-0.5,0.2-0.8,0.2c-0.5,0.1-1-0.2-1.2-0.7
			c-2-4.4-8.3-6.7-19-6.7c-2.9,0-5.8,0.4-8.6,1.1c-2.5,0.6-4.9,1.7-6.9,3.2c-1.7,1.2-2.7,3-2.7,4.9c-0.1,2,0.9,3.8,2.6,4.9
			c2,1.2,4.2,2,6.5,2.3c2.6,0.4,6.1,0.7,10.5,1c4.8,0.3,8.6,0.7,11.5,1.2c2.6,0.4,5.1,1.3,7.2,2.8c2,1.4,3.1,3.6,3,6
			c0.1,2.7-1.2,5.3-3.4,6.9c-2.5,1.8-5.4,3.1-8.4,3.7c-3.4,0.7-6.9,1.1-10.4,1.1c-4.8,0-9.6-0.7-14.2-2.1c-4.4-1.4-7.2-3.7-8.4-6.9
			C558.1,80.3,558.2,79.9,558.5,79.7z"/>
		<path class="st0" d="M634.6,51.6l-20.4,37.5c-0.2,0.4-0.5,0.6-0.9,0.6c-0.3,0-0.6-0.1-0.8-0.3c-0.2-0.2-0.3-0.4-0.3-0.7
			c0-0.2,0-0.4,0.1-0.6l21.3-39c0.2-0.4,0.6-0.6,1-0.6c0.4,0,0.8,0.2,0.9,0.6L657,88c0.1,0.2,0.1,0.4,0.1,0.6c0,0.3-0.1,0.5-0.3,0.7
			c-0.2,0.2-0.5,0.3-0.8,0.3c-0.4,0-0.8-0.2-0.9-0.6L634.6,51.6z"/>
		<path class="st0" d="M648.1,49.6c0-0.3,0.2-0.6,0.4-0.8c0.3-0.2,0.6-0.3,0.9-0.3c0.5,0,1,0.3,1.2,0.8l20.2,36.6l19.9-36.6
			c0.1-0.2,0.3-0.5,0.5-0.6c0.2-0.1,0.5-0.2,0.8-0.2c0.3,0,0.6,0.1,0.8,0.3c0.2,0.2,0.3,0.4,0.3,0.7c0,0.2,0,0.4-0.1,0.6L671.8,89
			c-0.2,0.4-0.6,0.6-1,0.6c-0.4,0-0.8-0.2-1-0.6l-21.6-39C648.2,49.9,648.1,49.8,648.1,49.6z"/>
		<path class="st0" d="M702.6,48.9c-0.5-0.4-1.2-0.4-1.7,0c-0.3,0.2-0.4,0.6-0.4,1v38.7c0,0.3,0.1,0.6,0.4,0.8
			c0.5,0.4,1.2,0.4,1.7,0c0.3-0.2,0.4-0.5,0.4-0.8V49.8C703,49.4,702.9,49.1,702.6,48.9z"/>
		<path class="st0" d="M782.1,49.6c0-0.3,0.2-0.6,0.4-0.8c0.3-0.2,0.6-0.3,0.9-0.3c0.5,0,1,0.3,1.2,0.8l20.2,36.6l19.9-36.6
			c0.1-0.2,0.3-0.5,0.5-0.6c0.2-0.1,0.5-0.2,0.8-0.2c0.3,0,0.6,0.1,0.8,0.3c0.2,0.2,0.3,0.4,0.3,0.7c0,0.2,0,0.4-0.1,0.6L805.8,89
			c-0.2,0.4-0.6,0.6-1,0.6c-0.4,0-0.8-0.2-1-0.6l-21.6-39C782.2,49.9,782.1,49.8,782.1,49.6z"/>
		<path class="st0" d="M836.6,48.9c-0.5-0.4-1.2-0.4-1.7,0c-0.3,0.2-0.4,0.6-0.4,1v38.7c0,0.3,0.1,0.6,0.4,0.8
			c0.5,0.4,1.2,0.4,1.7,0c0.3-0.2,0.4-0.5,0.4-0.8V49.8C837,49.4,836.9,49.1,836.6,48.9z"/>
		<path class="st0" d="M722.4,86.8c-3.4-1.8-6.3-4.5-8.3-7.7c-2-3.3-3-7-2.9-10.8c0-4,1.2-7.8,3.5-11.1c2.1-2.9,4.9-5.1,8.3-6.6
			c3.2-1.4,6.7-2.1,10.2-2.1c3.7,0,7.3,0.8,10.6,2.3c3.5,1.5,6.6,3.9,8.8,6.9c2.4,3.3,3.7,7.3,3.5,11.4c0,3.7-1,7.3-3.1,10.5
			c-2,3.1-4.9,5.6-8.2,7.4C737.8,90.6,729.3,90.5,722.4,86.8L722.4,86.8z M716.4,78.4c5.9,9.1,18.4,12,28,6.4
			c2.7-1.6,5.1-3.8,6.7-6.4c1.8-2.8,2.8-6.1,2.8-9.4c0.1-3.7-1-7.3-3.2-10.4c-2-2.7-4.8-4.8-8-6.1c-3-1.3-6.2-1.9-9.4-2
			c-3.2,0-6.4,0.7-9.4,2c-3,1.3-5.6,3.5-7.4,6.1c-2,3.1-3,6.7-2.9,10.4C713.5,72.4,714.5,75.6,716.4,78.4z"/>
		<path class="st0" d="M848,89.1c-0.2,0.4-0.5,0.6-0.9,0.6c-0.3,0-0.6-0.1-0.8-0.3c-0.2-0.2-0.3-0.4-0.3-0.7c0-0.2,0-0.4,0.1-0.6
			l21.3-39c0.2-0.4,0.6-0.6,1-0.6c0.4,0,0.8,0.2,0.9,0.6l21.4,39c0.1,0.2,0.2,0.4,0.1,0.6c0,0.3-0.1,0.5-0.3,0.7
			c-0.2,0.2-0.5,0.3-0.8,0.3c-0.4,0-0.8-0.2-0.9-0.6l-20.4-37.5L848,89.1z"/>
		<path class="st0" d="M942.3,48.9c0.6-0.4,1.5-0.4,2.1,0c0.3,0.2,0.5,0.6,0.5,1v38.5c0,0.3-0.1,0.7-0.4,0.9
			c-0.3,0.2-0.6,0.3-0.9,0.3c-0.7,0-1.3-0.3-1.8-0.7l-38.9-36.4v36c0,0.3-0.1,0.6-0.4,0.8c-0.3,0.2-0.6,0.3-1,0.3
			c-0.4,0-0.8-0.1-1.1-0.3c-0.3-0.2-0.5-0.5-0.5-0.9V49.9c0-0.4,0.1-0.7,0.4-1c0.3-0.2,0.6-0.4,1-0.4c0.6,0,1.3,0.3,1.7,0.7
			l38.8,36.4V49.8C941.8,49.4,942,49.1,942.3,48.9z"/>
		<path class="st0" d="M955.9,89.1c-0.2,0.4-0.5,0.6-0.9,0.6c-0.3,0-0.6-0.1-0.8-0.3c-0.2-0.2-0.3-0.4-0.3-0.7c0-0.2,0-0.4,0.1-0.6
			l21.3-39c0.2-0.4,0.6-0.6,1-0.6c0.4,0,0.8,0.2,0.9,0.6l21.4,39c0.1,0.2,0.2,0.4,0.1,0.6c0,0.3-0.1,0.5-0.3,0.7
			c-0.2,0.2-0.5,0.3-0.8,0.3c-0.4,0-0.8-0.2-0.9-0.6l-20.4-37.5L955.9,89.1z"/>
		<g id="Boomerang">
			<path class="st1" d="M25.4,55.1c-0.3,0-0.9-0.1-1.5-0.1"/>
			<path class="st0" d="M114.6,102.7"/>
			<path class="st0" d="M120.6,47.5"/>
			<path class="st0" d="M102.7,63L102.7,63c0,0.1-0.2,1-0.4,1.8c-1.9,9.1,1.1,19,1.1,19c2.1,6.1,5.3,11.8,9.5,16.8
				c0.5,0.6,0.2,0.2,1.8,2.1c4.9,6,7.2,9.2,8.6,11.8c0.5,0.9,1,1.8,1.4,2.7l0,0c0.5,1.1,0.8,2.2,1.1,3.4c0.2,2.3-0.1,4.5-1,6.7
				c0,0,4.6,2.1,6.2,2.2c2.3,0.2,4.5-0.4,6.5-1.5c1.6-0.9,2.8-2.2,3.6-3.7c0.5-1.1,0.6-2.4,0.4-3.6c-0.8-4.8-6.8-9.5-12.3-15.2
				c-3.1-3.1-5.9-6.5-8.4-10c-2.1-3.1-5.1-7.5-6.7-13c-1.5-5.7-1.4-11.6,0.2-17.3c1.1-4.5,3.8-12.8,27.1-40.9c0,0,0.9-1.1,2.3-2.9
				c0.8-1,1.1-1.4,1.3-1.7c0.9-1.2,1.5-2.4,2-3.8c0.4-1.4,0.5-2.9,0.3-4.3c-0.2-1-0.9-5.9-5-7.5c-2.8-1.1-6-0.5-8.3,1.3l-0.1,0.1
				l0,0c-1.1,0.8-2.1,1.7-2.9,2.7c0.8,1.9,0.6,6.3,0.4,7.7V16c-0.2,1.6-0.7,3.2-1.5,4.7c-1,2.2-2.2,3.9-4.5,7.1l0,0l-0.3,0.5l0,0
				l-0.4,0.5l-0.3,0.5l-0.3,0.4c-0.8,1.1-4.5,5.9-4.5,5.9c-1.2,1.5-3.5,4.7-6.3,8.4c-1,1.4-2.6,3.4-4.5,6.3l-0.3,0.5
				C106,54.6,104.1,58.7,102.7,63z"/>
			<path class="st2" d="M55.5,68.1c0.9,0.1,1.8,0.2,2.7,0.4l1.6,0.4"/>
			<path class="st2" d="M100.2,99.2c-1.4-2.2-2.6-4.4-2.6-4.4c-0.4-0.7-0.8-1.4-1.2-2.2c-2.5-4.5-4.3-9.3-5.4-14.3
				c-0.5-2.3-0.8-4.7-0.9-7c-0.1-4.1,0.4-8.2,1.7-12.2c0.6-1.9,1.4-3.7,2.3-5.5c1.5-3.1,3.3-6,5.4-8.8l0.8-1l0.5-0.7
				c5-6.4,12.3-14.2,13.4-15.7c0.1-0.2,0.8-1.1,1-1.4c0,0,0.2-0.2,0.4-0.5l0,0c1.7-2.2,3.2-4.6,4.4-7.1c0.7-1.5,1.2-3.1,1.5-4.7
				v-0.1c0.4-2,0.2-4.1-0.6-6c-0.3-0.7-0.8-1.3-1.3-1.8c-0.1-0.1-0.2-0.2-0.3-0.3c-0.3-0.3-0.7-0.6-1.1-0.9c-1-0.7-2.1-1.1-3.3-1.3
				c-2.6-0.2-4.8,1.3-5.9,2.2c-3.1,2.3-4.5,5.3-5.5,7.5c-0.5,1-0.7,1.6-1,2.5l-0.2,0.7c-1.1,3.1-2.4,6.1-3.9,9.1
				c-0.8,1.3-1.4,2.3-2.1,3.4c-1.5,2.2-3.1,4.3-4.8,6.4c-1.5,1.8-4.9,5.9-7.2,8.2c-4.5,4.3-9.8,7.8-15.6,10.4
				c-12.9,5.5-25.3,3.9-30.6,3c-2.5-0.4-4.5-0.7-5.9-0.9c0,0-2.3-0.3-8-1.1l-0.7-0.1c0,0-2-0.2-4-0.3c-3.3-0.3-6.7,0.2-9.8,1.2
				c-1.9,0.7-3.7,1.7-5.2,3.1c-3.3,3.1-4.9,7.5-4,9.9c0.5,1.2,1.4,2.2,2.5,2.9l0.1,0.1c1.5,0.9,3.1,1,6.1,0.8h0.3
				c3.7-0.2,6.5-0.6,7-0.7c0.7-0.1,1.4-0.2,2-0.3l1.5-0.3l1.1-0.2l1.3-0.2l0.9-0.1h0.2c2-0.3,3.6-0.6,5-0.8l2-0.4l1.3-0.2
				c0.7-0.1,1.7-0.2,3-0.4c7-0.9,14-1.1,21-0.6l4.3,0.7c4.4,0.9,8.5,2.8,12,5.6c3.9,3.2,6,8.3,10.1,18.4c0.7,1.6,1.4,3.3,1.9,5
				c3.9,12.9-1.4,19.1,3.8,25.5c2.5,2.9,5.9,4.8,9.8,5.4c6,0.9,13.6-1.8,15.3-6.2C115,116.5,105.7,107.9,100.2,99.2z M77.7,65.7
				c-1.7,0-3-1.3-3-2.9c0-1.6,1.3-2.9,3-2.9s3,1.3,3,2.9l0,0C80.7,64.5,79.4,65.7,77.7,65.7z"/>
			<ellipse class="st3" cx="77.7" cy="62.8" rx="3" ry="2.8"/>
		</g>
		<path class="st0" d="M742.2,105.4c1.7,1,3,2.5,3.7,4.2v-4.4c-0.1-0.4,0.2-0.7,0.6-0.8c0.1,0,0.2,0,0.2,0c0.2,0,0.5,0.1,0.7,0.2
			c0.2,0.1,0.3,0.4,0.3,0.6v21.1c0,0.2-0.1,0.4-0.3,0.6c-0.2,0.2-0.4,0.2-0.7,0.2c-0.4,0.1-0.8-0.2-0.9-0.6c0-0.1,0-0.1,0-0.2V122
			c-0.7,1.8-2.1,3.2-3.8,4.1c-1.9,1-4,1.5-6.2,1.4c-2.2,0-4.4-0.5-6.4-1.4c-1.9-0.9-3.6-2.3-4.7-4.1c-1.2-1.9-1.8-4.1-1.8-6.4
			c-0.1-2.2,0.6-4.4,1.8-6.3c1.2-1.8,2.9-3.2,4.8-4c2-0.9,4.2-1.4,6.4-1.4C738.2,103.8,740.3,104.3,742.2,105.4z M745.9,113.8
			c0-1.6-0.4-3.2-1.3-4.5c-0.9-1.3-2.1-2.3-3.6-2.9c-1.5-0.6-3.2-1-4.8-1c-2.1-0.1-4.2,0.4-6.1,1.4c-1.7,0.8-3,2.1-3.9,3.7
			c-1.8,3.3-1.8,7.2,0.1,10.4c0.9,1.5,2.2,2.8,3.8,3.7c1.7,0.9,3.5,1.4,5.4,1.3c1.7,0,3.5-0.3,5.1-1c1.5-0.6,2.9-1.5,3.9-2.8
			c1-1.3,1.5-2.9,1.5-4.5L745.9,113.8z"/>
		<path class="st0" d="M768.5,103.9c2.1,0,4.2,0.5,6,1.5c1.7,0.9,3,2.3,3.8,4.1V98.6c-0.1-0.4,0.2-0.8,0.7-0.8c0.1,0,0.1,0,0.2,0
			c0.2,0,0.5,0.1,0.7,0.2c0.2,0.1,0.3,0.4,0.3,0.6v27.8c0,0.2-0.1,0.4-0.3,0.6c-0.2,0.2-0.4,0.2-0.7,0.2c-0.4,0.1-0.8-0.2-0.9-0.6
			c0-0.1,0-0.1,0-0.2V122c-0.8,1.6-2.1,3-3.7,3.9c-1.9,1-4.1,1.5-6.3,1.5c-1.6,0-3.3-0.3-4.8-0.8c-2.4-0.8-4.5-2.3-6-4.3
			c-2.7-4.1-2.7-9.2,0-13.3c1.3-2,3.3-3.5,5.7-4.2C764.8,104.1,766.6,103.8,768.5,103.9z M776.9,122c0.9-1.3,1.4-2.7,1.4-4.3v-3.9
			c0-1.6-0.4-3.2-1.4-4.6c-0.9-1.3-2.2-2.2-3.7-2.9c-1.6-0.7-3.3-1-5-1c-2.1-0.1-4.2,0.4-6,1.4c-1.6,0.9-2.9,2.2-3.8,3.7
			c-0.9,1.6-1.3,3.3-1.3,5.1c0,1.8,0.5,3.6,1.4,5.2c0.9,1.5,2.2,2.8,3.8,3.6c1.7,0.9,3.6,1.4,5.5,1.5c1.8,0,3.5-0.3,5.1-1
			C774.5,124.4,775.9,123.3,776.9,122L776.9,122z"/>
		<path class="st0" d="M786.1,105.1c0-0.2,0.1-0.4,0.3-0.5c0.2-0.1,0.4-0.2,0.7-0.2c0.4,0,0.7,0.2,0.9,0.5l11.4,19.8l11.3-19.8
			c0.1-0.3,0.5-0.5,0.9-0.5c0.2,0,0.4,0,0.5,0.2c0.1,0.1,0.2,0.3,0.2,0.5c0,0.2,0,0.3-0.1,0.4l-12,21.4c-0.1,0.3-0.4,0.4-0.7,0.4
			c-0.3,0-0.6-0.2-0.8-0.4l-12.4-21.4C786.1,105.3,786.1,105.2,786.1,105.1z"/>
		<path class="st0" d="M823.7,126.4c-1.7-0.7-3.2-1.7-4.5-2.9c-2-2.2-3.1-4.9-3-7.8c0-1.7,0.4-3.4,1.1-4.9c1.5-3.2,4.5-5.6,8.2-6.5
			c1.3-0.3,2.6-0.4,3.9-0.4c1.3,0,2.6,0.1,3.8,0.4c2.6,0.6,4.8,2,6.5,3.9c1.6,1.9,2.6,4.2,2.8,6.7c0.3,3.2-0.8,6.3-3,8.7
			c-1.2,1.3-2.8,2.3-4.5,2.9C831.5,127.8,827.4,127.8,823.7,126.4L823.7,126.4z M829.3,105.4c-1.1,0-2.2,0.1-3.2,0.4
			c-2.4,0.5-4.5,1.9-5.9,3.8c-1.4,1.8-2.2,4.1-2.2,6.3c0,1.2,0.2,2.4,0.7,3.5c0.4,1.1,1.1,2.2,2,3.1c1.1,1.1,2.4,2,3.9,2.5
			c1.5,0.6,3.2,0.9,4.8,0.9c1.7,0,3.3-0.3,4.9-0.9c1.5-0.6,2.8-1.4,3.9-2.5c0.9-0.9,1.5-1.9,2-3.1c0.4-1.1,0.7-2.3,0.7-3.5
			c0-2.3-0.8-4.5-2.2-6.4c-1.4-1.9-3.6-3.3-6-3.8C831.5,105.5,830.4,105.4,829.3,105.4L829.3,105.4z"/>
		<path class="st0" d="M871.7,131.6c-1.1,1.5-2.7,2.6-4.4,3.3c-2,0.8-4.1,1.1-6.3,1.1c-1.8,0-3.6-0.2-5.4-0.7
			c-1.6-0.5-3-1.2-4.3-2.3c-0.2-0.2-0.3-0.4-0.4-0.6c0-0.2,0.1-0.4,0.3-0.5c0.2-0.1,0.4-0.2,0.6-0.2c0.2,0,0.5,0.1,0.7,0.2
			c1.2,0.9,2.6,1.5,4,2c1.4,0.4,2.9,0.6,4.4,0.5c1.8,0,3.6-0.3,5.3-1c1.5-0.6,2.9-1.5,3.8-2.8c1-1.3,1.5-2.9,1.5-4.6v-4.1
			c-0.8,1.7-2.2,3.1-3.9,3.9c-1.8,0.9-3.8,1.4-5.9,1.4c-2.2,0-4.4-0.4-6.4-1.3c-4.2-1.8-6.8-5.8-6.6-10.2c0-2.4,0.7-4.8,2.1-6.9
			c1.5-2,3.6-3.6,6-4.4c1.5-0.6,3.2-0.9,4.8-0.8c2.2,0,4.4,0.5,6.3,1.6c1.7,0.9,3,2.3,3.7,4V105c-0.1-0.4,0.2-0.8,0.7-0.8
			c0.1,0,0.1,0,0.2,0c0.2,0,0.5,0.1,0.7,0.2c0.2,0.1,0.3,0.4,0.3,0.6v21.3C873.4,128.2,872.8,130.1,871.7,131.6z M861.1,105.4
			c-2.2,0.1-4.4,0.8-6.2,2c-1.4,1-2.6,2.2-3.4,3.8c-0.7,1.5-1.1,3.1-1.1,4.7c0,1.8,0.4,3.5,1.3,5.1c0.9,1.5,2.2,2.8,3.9,3.6
			c1.9,0.9,4,1.4,6.1,1.3c1.7,0,3.5-0.4,5-1.1c1.4-0.7,2.6-1.7,3.5-3c0.8-1.2,1.3-2.6,1.3-4.1v-3.9c0-1.6-0.5-3.1-1.4-4.4
			c-1-1.3-2.3-2.4-3.9-3C864.6,105.8,862.9,105.4,861.1,105.4z"/>
		<path class="st0" d="M900,105.4c1.7,1,3,2.5,3.7,4.2v-4.4c-0.1-0.4,0.2-0.7,0.6-0.8c0.1,0,0.2,0,0.2,0c0.2,0,0.5,0.1,0.7,0.2
			c0.2,0.1,0.3,0.4,0.3,0.6v21.1c0,0.2-0.1,0.4-0.3,0.6c-0.2,0.2-0.4,0.2-0.7,0.2c-0.4,0.1-0.8-0.2-0.9-0.6c0-0.1,0-0.1,0-0.2V122
			c-0.7,1.8-2.1,3.2-3.8,4.1c-1.9,1-4,1.5-6.2,1.4c-2.2,0-4.4-0.5-6.4-1.4c-1.9-0.9-3.6-2.3-4.7-4.1c-1.2-1.9-1.8-4.1-1.8-6.4
			c-0.1-2.2,0.6-4.4,1.8-6.3c1.2-1.8,2.9-3.2,4.8-4c2-0.9,4.2-1.4,6.4-1.4C896.1,103.8,898.2,104.3,900,105.4z M903.7,113.8
			c0-1.6-0.4-3.2-1.3-4.5c-0.9-1.3-2.1-2.3-3.5-2.9c-1.5-0.6-3.2-1-4.8-1c-2.1-0.1-4.2,0.4-6.1,1.4c-1.7,0.8-3,2.1-3.9,3.7
			c-1.8,3.3-1.8,7.2,0.1,10.4c0.9,1.5,2.2,2.8,3.8,3.7c1.7,0.9,3.5,1.4,5.4,1.3c1.7,0,3.5-0.3,5.1-1c1.5-0.6,2.9-1.5,3.8-2.8
			c1-1.3,1.5-2.9,1.5-4.5L903.7,113.8z"/>
		<path class="st0" d="M926.3,103.9c2.1,0,4.2,0.5,6,1.5c1.7,0.9,3,2.3,3.8,4.1V98.6c-0.1-0.4,0.2-0.8,0.7-0.8c0.1,0,0.1,0,0.2,0
			c0.2,0,0.5,0.1,0.7,0.2c0.2,0.1,0.3,0.4,0.3,0.6v27.8c0,0.2-0.1,0.4-0.3,0.6c-0.2,0.2-0.4,0.2-0.7,0.2c-0.4,0.1-0.8-0.2-0.9-0.6
			c0-0.1,0-0.1,0-0.2V122c-0.8,1.6-2.1,3-3.7,3.9c-1.9,1-4.1,1.5-6.3,1.5c-1.6,0-3.3-0.3-4.8-0.8c-2.4-0.8-4.5-2.3-6-4.3
			c-2.7-4.1-2.7-9.2,0-13.3c1.3-2,3.3-3.5,5.7-4.2C922.6,104.1,924.5,103.8,926.3,103.9z M934.7,122c0.9-1.3,1.4-2.7,1.4-4.3v-3.9
			c0-1.6-0.4-3.2-1.4-4.6c-0.9-1.3-2.2-2.2-3.7-2.9c-1.6-0.7-3.3-1-5-1c-2.1-0.1-4.2,0.4-6,1.4c-1.6,0.9-2.9,2.2-3.8,3.7
			c-0.9,1.6-1.3,3.3-1.2,5.1c0,1.8,0.5,3.6,1.4,5.2c0.9,1.5,2.2,2.8,3.8,3.6c1.7,0.9,3.6,1.4,5.5,1.5c1.8,0,3.5-0.3,5.1-1
			C932.4,124.3,933.7,123.3,934.7,122L934.7,122z"/>
		<path class="st0" d="M952.9,126.4c-1.7-0.7-3.2-1.7-4.5-2.9c-2-2.2-3.1-4.9-3-7.8c0-1.7,0.4-3.4,1.1-4.9c1.5-3.2,4.5-5.6,8.2-6.5
			c1.3-0.3,2.6-0.4,3.8-0.4c1.3,0,2.6,0.1,3.8,0.4c2.6,0.6,4.8,2,6.5,3.9c1.6,1.9,2.6,4.2,2.8,6.7c0.3,3.2-0.8,6.3-3,8.7
			c-1.2,1.3-2.8,2.3-4.5,2.9C960.7,127.8,956.6,127.8,952.9,126.4L952.9,126.4z M958.5,105.4c-1.1,0-2.2,0.1-3.2,0.4
			c-2.4,0.5-4.5,1.9-5.9,3.8c-1.4,1.8-2.2,4.1-2.2,6.3c0,1.2,0.2,2.4,0.7,3.5c0.4,1.1,1.1,2.2,2,3.1c1.1,1.1,2.4,2,3.9,2.5
			c1.5,0.6,3.2,0.9,4.8,0.9c1.7,0,3.3-0.3,4.9-0.9c1.5-0.6,2.8-1.4,3.9-2.5c0.9-0.9,1.5-1.9,2-3.1c0.4-1.1,0.7-2.3,0.7-3.5
			c0-2.3-0.8-4.5-2.2-6.4c-1.4-1.9-3.6-3.3-6-3.8C960.7,105.5,959.6,105.4,958.5,105.4z"/>
		<path class="st0" d="M977.2,121.4c0.2-0.2,0.4-0.3,0.7-0.3c0.2,0,0.4,0.1,0.6,0.2c0.2,0.1,0.3,0.3,0.3,0.6
			c0.3,1.3,1.4,2.3,3.4,3.1c2.1,0.8,4.3,1.1,6.6,1.1c1.4,0,2.7-0.2,4.1-0.5c1.4-0.3,2.7-0.9,3.8-1.7c1-0.7,1.6-1.8,1.6-3.1
			c0.1-1-0.4-2-1.3-2.6c-0.9-0.6-2-1.1-3.2-1.2c-1.7-0.3-3.4-0.5-5.2-0.6c-2-0.1-4-0.3-5.9-0.7c-1.4-0.2-2.7-0.8-3.8-1.6
			c-1.1-0.9-1.6-2.2-1.5-3.6c0-1.3,0.6-2.6,1.7-3.5c1.2-1,2.6-1.8,4.1-2.3c1.6-0.5,3.3-0.8,5-0.8c6,0,9.7,1.5,11,4.6
			c0.1,0.3,0.1,0.6-0.1,0.8c-0.2,0.2-0.4,0.3-0.7,0.3c-0.2,0-0.4-0.1-0.5-0.2c-0.2-0.1-0.3-0.2-0.4-0.4c-1-2.5-4.1-3.7-9.3-3.7
			c-1.4,0-2.8,0.2-4.1,0.5c-1.3,0.3-2.5,0.9-3.5,1.7c-0.9,0.7-1.4,1.7-1.4,2.9c-0.1,1,0.4,1.9,1.2,2.5c0.9,0.6,2,1,3.1,1.2
			c1.2,0.2,2.9,0.4,5.1,0.5c2,0.1,4,0.4,6,0.7c1.4,0.2,2.7,0.8,3.8,1.7c1.1,0.9,1.7,2.3,1.6,3.7c0.1,1.5-0.6,3-1.8,4
			c-1.3,1-2.8,1.8-4.4,2.1c-1.6,0.4-3.3,0.6-5,0.6c-2.5,0-5.1-0.4-7.5-1.2c-2.1-0.6-3.6-2.1-4.1-4.1
			C977.1,121.9,977.1,121.6,977.2,121.4z"/>
	</g>
</g>
</svg>
