<?xml version="1.0" encoding="utf-8"?>
<!-- Generator: Adobe Illustrator 21.1.0, SVG Export Plug-In . SVG Version: 6.00 Build 0)  -->
<svg version="1.1" id="Camada_1" xmlns="http://www.w3.org/2000/svg" xmlns:xlink="http://www.w3.org/1999/xlink" x="0px" y="0px"
	 viewBox="0 0 1000 132.6" style="enable-background:new 0 0 1000 132.6;" xml:space="preserve">
<style type="text/css">
	.st0{fill:#666666;}
	.st1{fill:#FFFFFF;}
	.st2{fill:#840246;}
	.st3{fill:none;}
</style>
<title>logo_fmAtivo 1@2x</title>
<g id="Camada_2">
	<g id="Camada_1-2">
		<path class="st0" d="M164.8,86.1c-0.6,0-1.1-0.2-1.5-0.5s-0.6-0.7-0.6-1.2V46.7c0-0.5,0.3-0.9,0.6-1.1c0.4-0.3,1-0.5,1.5-0.5h18.9
			c4.5-0.1,9,0.9,13,2.9c3.4,1.7,6.2,4.4,8.1,7.6c3.6,6.2,3.6,13.8,0,20c-1.9,3.3-4.8,5.9-8.1,7.6c-4,2-8.5,3-13,2.9L164.8,86.1z
			 M183.7,84.1c4,0.1,8-0.8,11.5-2.6c8.8-4.6,12.2-15.5,7.6-24.3c-1.7-3.2-4.3-5.9-7.6-7.6c-3.6-1.8-7.5-2.7-11.5-2.6h-18.4v37.1
			L183.7,84.1z"/>
		<path class="st0" d="M219.3,85c0,0.3-0.2,0.6-0.4,0.8c-0.3,0.2-0.6,0.3-1,0.3c-0.3,0-0.7-0.1-0.9-0.3c-0.3-0.2-0.4-0.4-0.4-0.7
			V46.2c0-0.3,0.2-0.6,0.4-0.8c0.3-0.2,0.6-0.3,1-0.3h21.6c4.1-0.1,8.1,0.5,12,1.8c2.9,0.9,5.4,2.6,7.4,4.9c1.6,1.9,2.5,4.3,2.5,6.8
			c0,3.5-1.8,6.8-4.8,8.7c-3.2,2.2-7.8,3.5-13.9,3.9L260,84.4c0.3,0.2,0.5,0.5,0.5,0.8s-0.1,0.6-0.4,0.7c-0.3,0.2-0.6,0.3-0.9,0.3
			c-0.4,0-0.7-0.2-1-0.4l-12.9-10.2c-4.1-3.1-9.1-4.7-14.3-4.6h-8.6c-1.7,0-3.1,1-3.1,2.3L219.3,85z M239.7,69.1
			c6.2,0,10.9-1,14.1-2.9c3.2-1.9,4.8-4.4,4.8-7.5c0-2.2-0.8-4.3-2.3-5.9c-1.8-2-4-3.4-6.5-4.2c-3.2-1.1-6.7-1.6-10.1-1.5h-20.3
			v22.1L239.7,69.1z"/>
		<path class="st0" d="M312.9,46.1c0-0.3,0.1-0.6,0.4-0.8s0.6-0.3,0.9-0.3s0.6,0.1,0.9,0.3c0.2,0.2,0.4,0.4,0.4,0.7v21.8
			c0.1,3.6-1,7.1-3.1,9.9c-2.2,2.8-5,4.9-8.3,6.2c-7.1,2.8-14.9,2.8-22,0c-3.3-1.3-6.2-3.4-8.3-6.2c-2.2-2.8-3.3-6.3-3.2-9.9V46.1
			c0-0.3,0.1-0.6,0.4-0.7c0.5-0.4,1.2-0.4,1.7,0c0.3,0.2,0.4,0.5,0.4,0.8v21.7c-0.1,3.2,0.9,6.3,2.8,8.8s4.5,4.4,7.4,5.5
			c6.3,2.5,13.2,2.5,19.5,0c2.9-1.1,5.5-3,7.4-5.5s2.9-5.6,2.8-8.8L312.9,46.1z"/>
		<path class="st0" d="M368.3,45.1c0.3,0,0.6,0.1,0.8,0.3c0.2,0.2,0.3,0.5,0.3,0.9V85c0,0.3-0.1,0.6-0.4,0.8
			c-0.2,0.2-0.5,0.3-0.9,0.3c-0.3,0-0.6-0.1-0.9-0.3c-0.2-0.2-0.4-0.5-0.3-0.9V49.7l-18.8,34.2c-0.2,0.4-0.7,0.7-1.2,0.7
			s-1-0.2-1.3-0.7l-18.7-34.1V85c0,0.3-0.1,0.7-0.4,0.9c-0.2,0.2-0.6,0.3-0.9,0.3s-0.6-0.1-0.9-0.3c-0.2-0.2-0.4-0.5-0.4-0.8V46.2
			c0-0.3,0.1-0.7,0.4-0.9c0.2-0.2,0.5-0.3,0.8-0.3c0.5,0,0.9,0.2,1.2,0.6l20.2,36l20-36C367.3,45.3,367.8,45,368.3,45.1z"/>
		<path class="st0" d="M389.6,83.3c-3.4-1.8-6.3-4.4-8.3-7.7c-2-3.2-3-7-2.9-10.8c0-4,1.2-7.9,3.6-11.1c2.1-2.9,5-5.2,8.3-6.6
			c3.2-1.4,6.7-2.1,10.2-2.1c3.6,0,7.2,0.8,10.6,2.2c3.5,1.5,6.5,3.9,8.8,6.9c2.4,3.3,3.7,7.3,3.5,11.4c0,3.7-1.1,7.3-3.1,10.4
			c-2.1,3.1-4.9,5.7-8.2,7.4C405,87,396.6,87,389.6,83.3L389.6,83.3z M383.6,74.9c1.8,2.9,4.4,5.2,7.4,6.8c6.2,3.3,13.7,3.3,19.9,0
			c3-1.6,5.5-3.9,7.4-6.7c1.8-2.8,2.8-6.1,2.8-9.4c0.1-3.7-1-7.4-3.2-10.4c-2.1-2.7-4.8-4.9-8-6.1c-3-1.3-6.2-2-9.4-2
			c-3.2,0-6.4,0.7-9.4,2s-5.6,3.4-7.4,6.1c-2,3.1-3,6.7-2.9,10.4C380.8,68.9,381.7,72.2,383.6,74.9L383.6,74.9z"/>
		<path class="st0" d="M474.7,45.4c0.7-0.4,1.5-0.4,2.1,0c0.3,0.2,0.5,0.6,0.5,0.9v38.5c0,0.3-0.1,0.7-0.4,0.9
			c-0.3,0.2-0.6,0.3-0.9,0.3c-0.7,0-1.3-0.3-1.8-0.7L435.3,49v36c0,0.3-0.1,0.6-0.4,0.8c-0.3,0.2-0.6,0.3-1,0.3s-0.7-0.1-1.1-0.3
			c-0.3-0.2-0.5-0.5-0.5-0.9V46.4c0-0.4,0.1-0.7,0.4-1c0.3-0.2,0.6-0.4,1-0.3c0.6,0,1.3,0.2,1.7,0.7l38.8,36.3V46.3
			C474.2,45.9,474.4,45.6,474.7,45.4z"/>
		<path class="st0" d="M488.5,86.1c-0.6,0-1.1-0.2-1.5-0.5s-0.6-0.7-0.6-1.2V46.7c0-0.5,0.3-0.9,0.6-1.1c0.4-0.3,1-0.5,1.5-0.5h18.9
			c4.5-0.1,9,0.9,13,2.9c3.4,1.7,6.2,4.4,8.1,7.6c3.6,6.2,3.6,13.8,0,20c-1.9,3.3-4.8,5.9-8.1,7.6c-4,2-8.5,3-13,2.9L488.5,86.1z
			 M507.3,84.1c4,0.1,8-0.8,11.5-2.6c8.8-4.6,12.2-15.5,7.6-24.3c-1.7-3.2-4.3-5.9-7.6-7.6c-3.6-1.8-7.5-2.7-11.5-2.6H489v37.1
			L507.3,84.1z"/>
		<path class="st0" d="M558.5,76.2c0.3-0.2,0.6-0.4,1-0.4c0.3,0,0.5,0.1,0.7,0.2s0.4,0.3,0.4,0.6c0.9,2.2,2.6,3.9,4.8,4.8
			c2.5,1.2,5.2,2,8,2.3c2.5,0.4,4.9,0.6,7.4,0.6c3,0,6-0.3,9-0.9c2.7-0.5,5.3-1.6,7.6-3.1c2-1.3,3.2-3.5,3.1-5.8
			c0.1-2-1-3.9-2.7-4.9c-2-1.2-4.2-2-6.5-2.2c-2.6-0.4-6-0.7-10.3-1c-4.8-0.3-8.6-0.7-11.5-1.2c-2.6-0.4-5.1-1.4-7.3-2.8
			c-2-1.4-3.1-3.8-3-6.2c0-2.6,1.3-5,3.5-6.5c2.5-1.7,5.3-3,8.3-3.6c2.9-0.7,5.8-1,8.8-1.1c4.5,0,8.9,0.6,13.2,1.8
			c4,1.2,6.7,3.2,8.1,6.1c0.1,0.2,0.1,0.4,0.2,0.6c0,0.2-0.1,0.5-0.3,0.6c-0.2,0.2-0.5,0.2-0.8,0.2c-0.5,0.1-1-0.2-1.2-0.7
			c-2-4.5-8.3-6.7-19-6.7c-2.9,0-5.8,0.4-8.6,1.1c-2.5,0.6-4.9,1.7-6.9,3.2c-1.6,1.1-2.6,3-2.7,4.9c-0.1,2,0.9,3.9,2.6,4.9
			c2,1.2,4.2,2,6.5,2.3c2.6,0.4,6.1,0.7,10.5,1c4.8,0.3,8.6,0.7,11.5,1.2c2.6,0.4,5,1.3,7.2,2.8c2,1.3,3.1,3.6,3,6
			c0.1,2.7-1.2,5.3-3.4,6.9c-2.5,1.8-5.4,3.1-8.5,3.7c-3.4,0.7-6.9,1.1-10.4,1.1c-4.8,0-9.6-0.7-14.2-2.1c-4.4-1.4-7.2-3.7-8.4-6.9
			C558.1,76.8,558.2,76.4,558.5,76.2z"/>
		<path class="st0" d="M634.6,48.1l-20.4,37.5c-0.2,0.4-0.5,0.6-0.9,0.6c-0.3,0-0.6-0.1-0.8-0.3c-0.2-0.2-0.3-0.4-0.3-0.7
			c0-0.2,0-0.4,0.1-0.6l21.3-39c0.2-0.4,0.6-0.6,1-0.6s0.8,0.2,0.9,0.6l21.4,39c0.1,0.2,0.1,0.4,0.1,0.6c0,0.3-0.1,0.5-0.3,0.7
			s-0.5,0.3-0.8,0.3c-0.4,0-0.8-0.2-0.9-0.6L634.6,48.1z"/>
		<path class="st0" d="M648.1,46.2c0-0.3,0.2-0.6,0.4-0.8c0.3-0.2,0.6-0.3,0.9-0.3c0.5,0,1,0.3,1.2,0.8l20.2,36.6l19.9-36.6
			c0.1-0.2,0.3-0.5,0.5-0.6s0.5-0.2,0.8-0.2s0.6,0.1,0.8,0.2c0.2,0.2,0.3,0.4,0.3,0.7c0,0.2,0,0.4-0.1,0.6l-21.1,38.9
			c-0.2,0.4-0.6,0.6-1,0.6s-0.8-0.2-1-0.6l-21.5-39C648.2,46.4,648.2,46.3,648.1,46.2z"/>
		<path class="st0" d="M702.6,45.4c-0.5-0.4-1.2-0.4-1.7,0c-0.3,0.2-0.4,0.6-0.4,0.9V85c0,0.3,0.1,0.6,0.4,0.8
			c0.5,0.4,1.2,0.4,1.7,0c0.2-0.2,0.4-0.5,0.4-0.8V46.3C703,45.9,702.9,45.6,702.6,45.4z"/>
		<path class="st0" d="M782.1,46.2c0-0.3,0.2-0.6,0.4-0.8c0.3-0.2,0.6-0.3,0.9-0.3c0.5,0,1,0.3,1.2,0.8l20.2,36.6l19.9-36.6
			c0.1-0.2,0.3-0.5,0.5-0.6s0.5-0.2,0.8-0.2s0.6,0.1,0.8,0.2c0.2,0.2,0.3,0.4,0.3,0.7c0,0.2,0,0.4-0.1,0.6l-21.1,38.9
			c-0.2,0.4-0.6,0.6-1,0.6s-0.8-0.2-1-0.6l-21.5-39C782.2,46.4,782.1,46.3,782.1,46.2z"/>
		<path class="st0" d="M836.6,45.4c-0.5-0.4-1.2-0.4-1.7,0c-0.3,0.2-0.4,0.6-0.4,0.9V85c0,0.3,0.1,0.6,0.4,0.8
			c0.5,0.4,1.2,0.4,1.7,0c0.3-0.2,0.4-0.5,0.4-0.8V46.3C837,45.9,836.9,45.6,836.6,45.4z"/>
		<path class="st0" d="M722.3,83.3c-3.4-1.8-6.2-4.4-8.3-7.7c-2-3.2-3-7-2.9-10.8c0-4,1.2-7.9,3.5-11.1c2.1-2.9,5-5.2,8.3-6.6
			c3.2-1.4,6.7-2.1,10.2-2.1c3.6,0,7.2,0.8,10.6,2.2c3.5,1.5,6.5,3.9,8.8,6.9c2.4,3.3,3.7,7.3,3.5,11.4c0,3.7-1,7.3-3,10.4
			c-2.1,3.1-4.9,5.7-8.2,7.4C737.8,87,729.4,87,722.3,83.3L722.3,83.3z M716.3,74.9c1.8,2.9,4.4,5.2,7.4,6.8
			c6.2,3.3,13.7,3.3,19.9,0c3-1.6,5.5-3.9,7.4-6.7c1.8-2.8,2.8-6.1,2.8-9.4c0.1-3.7-1-7.4-3.2-10.4c-2.1-2.7-4.8-4.9-8-6.1
			c-3-1.3-6.2-2-9.4-2s-6.4,0.7-9.4,2s-5.6,3.4-7.4,6.1c-2,3.1-3,6.7-2.9,10.4C713.5,68.9,714.5,72.2,716.3,74.9L716.3,74.9z"/>
		<path class="st0" d="M848,85.6c-0.2,0.4-0.5,0.6-0.9,0.6c-0.3,0-0.6-0.1-0.8-0.3c-0.2-0.2-0.3-0.4-0.3-0.7c0-0.2,0-0.4,0.1-0.6
			l21.3-39c0.2-0.4,0.6-0.6,1-0.6s0.8,0.2,0.9,0.6l21.4,39c0.1,0.2,0.1,0.4,0.1,0.6c0,0.3-0.1,0.5-0.3,0.7s-0.5,0.3-0.8,0.3
			c-0.4,0-0.8-0.2-0.9-0.6l-20.4-37.5L848,85.6z"/>
		<path class="st0" d="M942.3,45.4c0.7-0.4,1.5-0.4,2.1,0c0.3,0.2,0.5,0.5,0.5,0.9v38.5c0,0.3-0.1,0.7-0.4,0.9
			c-0.3,0.2-0.6,0.3-0.9,0.3c-0.7,0-1.3-0.3-1.8-0.7l-39-36.3v36c0,0.3-0.1,0.6-0.4,0.8c-0.3,0.2-0.6,0.3-1,0.3s-0.7-0.1-1.1-0.3
			c-0.3-0.2-0.5-0.5-0.5-0.9V46.4c0-0.4,0.1-0.7,0.4-1c0.3-0.2,0.6-0.4,1-0.3c0.6,0,1.3,0.2,1.7,0.7l38.8,36.3V46.3
			C941.8,45.9,942,45.6,942.3,45.4z"/>
		<path class="st0" d="M955.9,85.6c-0.2,0.4-0.5,0.6-0.9,0.6c-0.3,0-0.6-0.1-0.8-0.3c-0.2-0.2-0.3-0.4-0.3-0.7c0-0.2,0-0.4,0.1-0.6
			l21.3-39c0.2-0.4,0.6-0.6,1-0.6s0.8,0.2,0.9,0.6l21.4,39c0.1,0.2,0.1,0.4,0.1,0.6c0,0.3-0.1,0.5-0.3,0.7s-0.5,0.3-0.8,0.3
			c-0.4,0-0.8-0.2-0.9-0.6l-20.4-37.5L955.9,85.6z"/>
		<g id="Boomerang">
			<path class="st1" d="M25.4,51.7c-0.3,0-0.9-0.1-1.5-0.1"/>
			<path class="st0" d="M114.6,99.2"/>
			<path class="st0" d="M120.6,44"/>
			<path class="st0" d="M102.8,59.5L102.8,59.5c0,0.1-0.2,1-0.4,1.8c-1.9,9.1,1.1,19,1.1,19c2.1,6.1,5.4,11.8,9.5,16.8
				c0.5,0.6,0.2,0.2,1.8,2.1c4.9,6,7.2,9.2,8.6,11.8c0.5,0.9,1,1.7,1.4,2.7l0,0c0.5,1.1,0.8,2.2,1.1,3.4c0.2,2.3-0.1,4.5-1,6.6
				c0,0,4.6,2.2,6.2,2.2c2.3,0.2,4.5-0.4,6.4-1.5c1.5-0.9,2.8-2.2,3.6-3.7c0.5-1.1,0.6-2.4,0.4-3.6c-0.8-4.8-6.8-9.5-12.3-15.2
				c-3.1-3.1-5.9-6.4-8.3-10c-2.1-3.1-5.1-7.5-6.7-13c-1.5-5.7-1.4-11.6,0.2-17.3c1.1-4.5,3.8-12.8,27.1-40.9c0,0,0.9-1.1,2.3-2.9
				c0.8-0.9,1.1-1.4,1.3-1.7c0.9-1.2,1.5-2.5,1.9-3.9s0.5-2.8,0.2-4.3c-0.2-1-0.9-5.9-5-7.4c-2.8-1-5.9-0.5-8.2,1.4h-0.1l0,0
				c-0.6,0.4-1.1,0.9-1.6,1.3s-0.9,0.9-1.3,1.4c0.8,1.9,0.6,6.3,0.4,7.7v0.1c-0.3,1.6-0.8,3.2-1.5,4.7c-1,2.2-2.2,3.9-4.5,7.1l0,0
				l-0.3,0.5l0,0l-0.4,0.5l-0.3,0.5l-0.3,0.5c-0.8,1.1-4.5,5.9-4.5,5.9c-1.2,1.5-3.5,4.7-6.2,8.4c-1,1.4-2.6,3.5-4.5,6.3l-0.3,0.5
				C106,51.1,104.1,55.2,102.8,59.5z"/>
			<path class="st2" d="M55.5,64.7c1.8,0.2,2.7,0.4,2.7,0.4l1.6,0.3"/>
			<path class="st2" d="M100.2,95.7c-1.4-2.2-2.6-4.4-2.6-4.4c-0.4-0.7-0.8-1.4-1.2-2.2c-2.5-4.5-4.3-9.3-5.4-14.3
				c-0.5-2.3-0.8-4.6-0.9-7c-0.1-4.1,0.4-8.2,1.7-12.2c0.6-1.9,1.4-3.7,2.3-5.5c1.5-3.1,3.3-6,5.4-8.8l0.8-1l0.5-0.7
				c5-6.3,12.2-14.2,13.4-15.7c0.1-0.2,0.8-1.1,1-1.4c0,0,0.2-0.2,0.4-0.5l0,0c1.7-2.2,3.2-4.6,4.4-7.1c0.7-1.5,1.2-3.1,1.4-4.7
				v-0.1c0.5-2,0.2-4.1-0.6-6c-0.3-0.7-0.8-1.3-1.3-1.8c-0.1-0.1-0.2-0.2-0.3-0.3c-0.3-0.3-0.7-0.6-1-0.8c-1-0.7-2.1-1.1-3.3-1.3
				c-2.6-0.2-4.8,1.3-5.9,2.2c-2.5,2-4.4,4.6-5.5,7.5c-0.5,1-0.7,1.6-1,2.6L102,13c-1.1,3.1-2.4,6.1-3.9,9.1
				c-0.8,1.3-1.4,2.3-2.1,3.4c-1.5,2.2-3.1,4.3-4.8,6.4c-1.5,1.8-4.9,5.9-7.2,8.2c-4.5,4.4-9.8,7.9-15.6,10.4
				c-12.9,5.5-25.3,4-30.6,3c-2.5-0.4-4.5-0.7-5.9-0.9c0,0-2.3-0.3-8-1.1l-0.6-0.1c0,0-2-0.2-4-0.3c-3.3-0.2-6.6,0.2-9.8,1.3
				c-2,0.6-3.7,1.6-5.3,3c-3.3,3-4.9,7.5-4,9.8c0.5,1.2,1.4,2.2,2.5,2.8l0.1,0.1c1.5,0.9,3.1,1,6.1,0.8h0.3c3.7-0.2,6.4-0.6,7-0.7
				c0.7-0.1,1.4-0.2,2-0.3l1.5-0.3l1.1-0.2l1.3-0.2L23,67h0.2c2-0.3,3.6-0.6,5-0.8l2-0.3l1.3-0.2c0.7-0.1,1.7-0.2,3-0.4
				c7-0.9,14-1.1,21-0.6l4.3,0.7c4.4,0.9,8.5,2.8,12,5.6c3.9,3.2,6,8.3,10.1,18.4c0.7,1.6,1.4,3.3,1.9,5c3.9,12.9-1.3,19.1,3.8,25.5
				c2.5,2.9,6,4.8,9.8,5.4c6,0.8,13.6-1.8,15.3-6.2C115,113,105.7,104.4,100.2,95.7z M77.7,62.2c-1.6-0.1-2.8-1.4-2.7-3
				c0.1-1.6,1.4-2.8,3-2.7c1.5,0.1,2.7,1.3,2.7,2.9C80.7,61,79.3,62.3,77.7,62.2L77.7,62.2z"/>
			<ellipse class="st3" cx="77.7" cy="59.3" rx="3" ry="2.8"/>
		</g>
		<path class="st0" d="M742.2,101.9c1.7,1,3,2.4,3.7,4.2v-4.5c0-0.5,0.3-0.8,0.9-0.8c0.2,0,0.5,0.1,0.7,0.2s0.3,0.4,0.3,0.6v21.1
			c0,0.2-0.1,0.4-0.3,0.6c-0.2,0.1-0.4,0.2-0.7,0.2c-0.6,0-0.9-0.3-0.9-0.8v-4.3c-0.7,1.8-2.1,3.2-3.8,4.1c-1.9,1-4,1.5-6.2,1.4
			c-2.2,0-4.4-0.5-6.4-1.4c-1.9-0.9-3.6-2.3-4.7-4.1c-1.2-1.9-1.8-4.1-1.8-6.4c-0.1-2.2,0.6-4.5,1.8-6.3s2.9-3.1,4.8-4
			c2-0.9,4.2-1.4,6.4-1.4C738.2,100.3,740.3,100.8,742.2,101.9z M745.9,110.3c0-1.6-0.4-3.2-1.3-4.5c-0.9-1.3-2.1-2.3-3.5-2.9
			c-1.5-0.7-3.2-1-4.8-1c-2.1-0.1-4.2,0.4-6.1,1.4c-1.6,0.8-3,2.1-3.9,3.7c-2.8,4.9-1.2,11.1,3.7,14c0.1,0,0.2,0.1,0.2,0.1
			c1.7,0.9,3.5,1.4,5.4,1.3c1.7,0,3.5-0.3,5.1-0.9c1.5-0.6,2.8-1.5,3.8-2.8s1.5-2.9,1.5-4.5L745.9,110.3z"/>
		<path class="st0" d="M768.5,100.4c2.1,0,4.2,0.5,6,1.5c1.7,0.9,3,2.3,3.8,4.1V95.1c0-0.5,0.3-0.8,0.9-0.8c0.2,0,0.5,0.1,0.7,0.2
			s0.3,0.4,0.3,0.6v27.8c0,0.2-0.1,0.4-0.3,0.6c-0.2,0.1-0.4,0.2-0.7,0.2c-0.6,0-0.9-0.3-0.9-0.8v-4.4c-0.8,1.7-2.1,3-3.7,3.9
			c-1.9,1-4.1,1.5-6.3,1.5c-1.6,0-3.3-0.3-4.8-0.8c-2.4-0.8-4.5-2.3-6-4.3c-2.7-4-2.7-9.3,0-13.3c1.4-2,3.4-3.5,5.7-4.2
			C764.8,100.6,766.6,100.3,768.5,100.4z M776.9,118.5c0.9-1.2,1.4-2.7,1.4-4.3v-3.9c0-1.6-0.4-3.2-1.4-4.6
			c-0.9-1.3-2.2-2.3-3.7-2.9c-1.6-0.7-3.3-1-5-1c-2.1-0.1-4.2,0.4-6,1.4c-1.6,0.8-2.9,2.1-3.8,3.7c-0.9,1.5-1.3,3.3-1.3,5.1
			c0,1.8,0.5,3.6,1.4,5.2c0.9,1.5,2.3,2.8,3.8,3.6c1.7,0.9,3.6,1.4,5.5,1.5c1.8,0,3.5-0.3,5.1-1
			C774.5,120.8,775.8,119.8,776.9,118.5z"/>
		<path class="st0" d="M786.1,101.6c0-0.2,0.1-0.4,0.3-0.5s0.4-0.2,0.7-0.2c0.4,0,0.7,0.2,0.9,0.5l11.4,19.8l11.3-19.8
			c0.1-0.3,0.5-0.6,0.9-0.5c0.2,0,0.4,0,0.5,0.2c0.1,0.1,0.2,0.3,0.2,0.5s0,0.3-0.1,0.4l-12,21.4c-0.1,0.3-0.4,0.5-0.7,0.4
			c-0.3,0-0.6-0.1-0.8-0.4L786.3,102C786.1,101.8,786.1,101.7,786.1,101.6z"/>
		<path class="st0" d="M823.7,122.9c-1.7-0.7-3.2-1.7-4.5-2.9c-2-2.1-3.1-4.9-3-7.8c0-1.7,0.4-3.4,1.1-4.9c0.8-1.6,1.9-3,3.2-4.1
			c1.4-1.2,3.1-2,5-2.4c1.3-0.3,2.6-0.4,3.8-0.4c1.3,0,2.6,0.1,3.8,0.4c5.1,1.2,8.8,5.4,9.3,10.6c0.3,3.2-0.8,6.3-3,8.7
			c-1.3,1.3-2.8,2.3-4.5,2.9C831.5,124.3,827.4,124.3,823.7,122.9L823.7,122.9z M829.3,101.9c-1.1,0-2.1,0.1-3.2,0.4
			c-4.7,1.1-8,5.3-8.1,10.1c0,1.2,0.2,2.4,0.7,3.6s1.1,2.2,2,3.1c1.1,1.1,2.4,2,3.9,2.5c1.5,0.6,3.2,0.9,4.8,0.9
			c1.7,0,3.3-0.3,4.9-0.9c1.5-0.5,2.8-1.4,3.9-2.5c0.9-0.9,1.5-1.9,2-3.1c0.4-1.1,0.7-2.3,0.7-3.5c0-4.9-3.4-9.1-8.2-10.1
			C831.6,102.1,830.4,101.9,829.3,101.9L829.3,101.9z"/>
		<path class="st0" d="M871.7,128.1c-1.1,1.5-2.7,2.7-4.4,3.3c-2,0.8-4.2,1.1-6.3,1.1c-1.8,0-3.6-0.2-5.3-0.7
			c-1.6-0.5-3-1.2-4.3-2.3c-0.2-0.1-0.3-0.4-0.4-0.6c0-0.2,0.1-0.4,0.3-0.5s0.4-0.2,0.6-0.2c0.2,0,0.5,0.1,0.7,0.2
			c1.2,0.9,2.6,1.5,4,2c1.4,0.4,2.9,0.6,4.4,0.5c1.8,0,3.6-0.3,5.3-0.9c1.5-0.5,2.9-1.5,3.8-2.8c1-1.3,1.5-2.9,1.5-4.6v-4.2
			c-0.8,1.7-2.2,3.1-3.9,3.9c-1.8,0.9-3.9,1.4-5.9,1.4c-2.2,0-4.4-0.4-6.4-1.3c-1.9-0.8-3.6-2.2-4.8-3.9c-1.2-1.8-1.9-4-1.8-6.2
			c0-2.4,0.7-4.8,2.1-6.8c1.5-2.1,3.6-3.6,6-4.4c1.5-0.6,3.2-0.8,4.8-0.8c2.2,0,4.4,0.5,6.3,1.6c1.6,0.9,2.9,2.3,3.7,4v-4.4
			c0-0.5,0.3-0.8,0.9-0.8c0.2,0,0.5,0.1,0.7,0.2s0.3,0.4,0.3,0.6v21.3C873.3,124.7,872.8,126.6,871.7,128.1z M861.1,101.9
			c-2.2,0.1-4.4,0.8-6.2,2c-1.4,0.9-2.6,2.2-3.4,3.8c-0.7,1.5-1.1,3.1-1.1,4.7c0,1.8,0.4,3.5,1.3,5.1c0.9,1.6,2.3,2.8,3.9,3.6
			c1.9,0.9,4,1.4,6.1,1.3c1.7,0,3.4-0.4,5-1.1c1.4-0.7,2.6-1.7,3.5-3c0.8-1.2,1.3-2.6,1.3-4.1v-3.9c0-1.6-0.5-3.1-1.4-4.4
			c-1-1.3-2.4-2.4-3.9-3C864.6,102.2,862.9,101.9,861.1,101.9L861.1,101.9z"/>
		<path class="st0" d="M900,101.9c1.7,1,3,2.4,3.7,4.2v-4.5c0-0.5,0.3-0.8,0.9-0.8c0.2,0,0.5,0.1,0.7,0.2s0.3,0.4,0.3,0.6v21.1
			c0,0.2-0.1,0.4-0.3,0.6c-0.2,0.1-0.4,0.2-0.7,0.2c-0.6,0-0.9-0.3-0.9-0.8v-4.3c-0.7,1.8-2.1,3.2-3.8,4.1c-1.9,1-4,1.5-6.2,1.4
			c-2.2,0-4.4-0.5-6.4-1.4c-1.9-0.9-3.6-2.3-4.7-4.1c-1.2-1.9-1.8-4.1-1.8-6.4c-0.1-2.2,0.6-4.5,1.8-6.3s2.9-3.1,4.8-4
			c2-0.9,4.2-1.4,6.4-1.4C896,100.3,898.1,100.8,900,101.9z M903.7,110.3c0-1.6-0.4-3.2-1.3-4.5c-0.9-1.3-2.1-2.3-3.5-2.9
			c-1.5-0.7-3.2-1-4.8-1c-2.1-0.1-4.2,0.4-6.1,1.4c-1.6,0.8-3,2.1-3.9,3.7c-2.8,4.9-1.2,11.1,3.7,14c0.1,0,0.2,0.1,0.2,0.1
			c1.7,0.9,3.5,1.4,5.4,1.3c1.7,0,3.5-0.3,5.1-0.9c1.5-0.6,2.8-1.5,3.8-2.8s1.5-2.9,1.5-4.5L903.7,110.3z"/>
		<path class="st0" d="M926.3,100.4c2.1,0,4.2,0.5,6,1.5c1.7,0.9,3,2.3,3.8,4.1V95.1c0-0.5,0.3-0.8,0.9-0.8c0.2,0,0.5,0.1,0.7,0.2
			s0.3,0.4,0.3,0.6v27.8c0,0.2-0.1,0.4-0.3,0.6c-0.2,0.1-0.4,0.2-0.7,0.2c-0.6,0-0.9-0.3-0.9-0.8v-4.4c-0.8,1.7-2.1,3-3.7,3.9
			c-1.9,1-4.1,1.5-6.2,1.5c-1.6,0-3.3-0.3-4.8-0.8c-2.4-0.8-4.5-2.3-6-4.3c-2.7-4-2.7-9.3,0-13.3c1.4-2,3.4-3.5,5.7-4.2
			C922.7,100.6,924.5,100.3,926.3,100.4z M934.7,118.5c0.9-1.2,1.4-2.7,1.4-4.3v-3.9c0-1.6-0.4-3.2-1.4-4.6
			c-0.9-1.3-2.2-2.3-3.7-2.9c-1.6-0.7-3.3-1-5-1c-2.1-0.1-4.2,0.4-6,1.4c-1.6,0.8-2.9,2.1-3.8,3.7c-0.9,1.5-1.3,3.3-1.3,5.1
			c0,1.8,0.5,3.6,1.4,5.2c0.9,1.5,2.3,2.8,3.8,3.6c1.7,0.9,3.6,1.4,5.5,1.5c1.8,0,3.5-0.3,5.1-1
			C932.3,120.8,933.7,119.8,934.7,118.5z"/>
		<path class="st0" d="M952.9,122.9c-1.7-0.7-3.2-1.7-4.5-2.9c-2-2.1-3.1-4.9-3-7.8c0-1.7,0.4-3.4,1.1-4.9c0.8-1.6,1.9-3,3.2-4.1
			c1.4-1.2,3.1-2,5-2.4c1.3-0.3,2.6-0.4,3.8-0.4c1.3,0,2.6,0.1,3.8,0.4c5.1,1.2,8.8,5.4,9.3,10.6c0.3,3.2-0.8,6.3-3,8.7
			c-1.3,1.3-2.8,2.3-4.5,2.9C960.7,124.3,956.6,124.3,952.9,122.9L952.9,122.9z M958.5,101.9c-1.1,0-2.1,0.1-3.2,0.4
			c-4.7,1.1-8,5.3-8.1,10.1c0,1.2,0.2,2.4,0.7,3.6s1.1,2.2,2,3.1c1.1,1.1,2.4,2,3.9,2.5c1.5,0.6,3.2,0.9,4.8,0.9
			c1.7,0,3.3-0.3,4.9-0.9c1.5-0.5,2.8-1.4,3.9-2.5c0.9-0.9,1.5-1.9,2-3.1c0.4-1.1,0.7-2.3,0.7-3.5c0-4.9-3.4-9.1-8.2-10.1
			C960.8,102.1,959.6,101.9,958.5,101.9L958.5,101.9z"/>
		<path class="st0" d="M977.2,117.8c0.3-0.4,0.9-0.4,1.2-0.1c0.2,0.1,0.3,0.3,0.3,0.6c0.3,1.3,1.4,2.4,3.4,3.1
			c2.1,0.8,4.3,1.1,6.5,1.1c1.4,0,2.7-0.2,4.1-0.5c1.4-0.3,2.7-0.9,3.8-1.7c1-0.7,1.6-1.8,1.6-3.1c0.1-1-0.4-2-1.3-2.6
			c-1-0.6-2-1.1-3.2-1.2c-1.7-0.3-3.4-0.5-5.2-0.6c-2-0.1-4-0.3-5.9-0.7c-1.4-0.2-2.7-0.8-3.8-1.6c-1.1-0.9-1.6-2.2-1.5-3.6
			c0-1.4,0.6-2.6,1.7-3.5c1.2-1,2.6-1.8,4.1-2.3c1.6-0.5,3.3-0.8,5-0.8c6,0,9.7,1.5,11,4.6c0.1,0.3,0.1,0.6-0.1,0.8
			c-0.2,0.2-0.4,0.3-0.7,0.3c-0.2,0-0.4-0.1-0.5-0.2c-0.2-0.1-0.3-0.2-0.4-0.4c-1-2.5-4.1-3.7-9.3-3.7c-1.4,0-2.8,0.2-4.1,0.5
			s-2.5,0.9-3.5,1.7c-0.9,0.7-1.4,1.7-1.4,2.9c0,1,0.4,1.9,1.2,2.5c0.9,0.6,2,1,3.1,1.2c1.2,0.2,2.9,0.4,5.1,0.5
			c2.5,0.2,4.5,0.5,6,0.7c1.4,0.2,2.7,0.8,3.8,1.7c1.1,0.9,1.7,2.3,1.6,3.7c0.1,1.6-0.6,3-1.8,4c-1.3,1-2.8,1.8-4.4,2.1
			c-1.6,0.4-3.3,0.6-5,0.6c-2.5,0-5.1-0.4-7.5-1.2c-2.3-0.8-3.7-2.2-4.1-4.1C977.1,118.4,977.1,118.1,977.2,117.8z"/>
	</g>
</g>
</svg>
